<?xml version="1.0" standalone="no"?>
<!DOCTYPE svg PUBLIC "-//W3C//DTD SVG 1.1//EN" "http://www.w3.org/Graphics/SVG/1.1/DTD/svg11.dtd" >
<svg xmlns="http://www.w3.org/2000/svg">
<metadata>
This is a custom SVG webfont generated by Font Squirrel.
Designer    : Mark Simonson
Foundry URL : httpwwwmarksimonsoncom
</metadata>
<defs>
<font id="webfont8q0Q55Kx" horiz-adv-x="470" >
<font-face units-per-em="1000" ascent="790" descent="-210" />
<missing-glyph horiz-adv-x="217" />
<glyph unicode="ffj" horiz-adv-x="669" d="M83 0h-51l97 438h-64l10 45h64l15 69q27 125 127 125q50 0 80 -33l-30 -37q-19 25 -49 25q-61 0 -78 -81l-14 -68h83l-10 -45h-83zM322 0h-51l97 438h-64l10 45h64l15 68q27 126 127 126q35 0 60 -16l-22 -41q-15 12 -37 12q-59 0 -78 -81l-14 -68h83l-10 -45h-83z M411 -196q-59 0 -84 39l32 35q15 -29 49 -29q51 0 69 79l124 555h50l-123 -555q-15 -66 -42.5 -95t-74.5 -29zM647 559q-15 0 -25.5 10.5t-10.5 24.5q0 18 14 30.5t30 12.5q15 0 25.5 -10t10.5 -24q0 -19 -14 -31.5t-30 -12.5z" />
<glyph unicode="fj" horiz-adv-x="431" d="M83 0h-51l97 438h-64l10 45h64l15 68q27 126 127 126q35 0 60 -16l-22 -41q-15 12 -37 12q-59 0 -78 -81l-14 -68h83l-10 -45h-83zM173 -196q-59 0 -84 39l32 35q15 -29 49 -29q51 0 69 79l124 555h50l-123 -555q-15 -66 -42.5 -95t-74.5 -29zM409 559q-15 0 -25.5 10.5 t-10.5 24.5q0 18 14 30.5t30 12.5q15 0 25.5 -10t10.5 -24q0 -19 -14 -31.5t-30 -12.5z" />
<glyph unicode="&#xfb00;" horiz-adv-x="477" d="M83 0h-51l97 438h-64l10 45h64l15 69q27 125 127 125q50 0 80 -33l-30 -37q-19 25 -49 25q-61 0 -78 -81l-14 -68h83l-10 -45h-83zM322 0h-51l97 438h-64l10 45h64l15 69q27 125 127 125q50 0 80 -33l-30 -37q-19 25 -49 25q-61 0 -78 -81l-14 -68h83l-10 -45h-83z" />
<glyph unicode="&#xfb01;" horiz-adv-x="431" d="M83 0h-51l97 438h-64l10 45h64l15 68q27 126 127 126q35 0 60 -16l-22 -41q-15 12 -37 12q-59 0 -78 -81l-14 -68h83l-10 -45h-83zM409 559q-15 0 -25.5 10.5t-10.5 24.5q0 18 14 30.5t30 12.5q15 0 25.5 -10t10.5 -24q0 -19 -14 -31.5t-30 -12.5zM306 0h-50l107 483h50z " />
<glyph unicode="&#xfb02;" horiz-adv-x="431" d="M83 0h-51l97 438h-64l10 45h64l15 68q27 126 127 126q35 0 60 -16l-22 -41q-15 12 -37 12q-59 0 -78 -81l-14 -68h83l-10 -45h-83zM306 0h-50l147 667h50z" />
<glyph unicode="&#xfb03;" horiz-adv-x="669" d="M83 0h-51l97 438h-64l10 45h64l15 69q27 125 127 125q50 0 80 -33l-30 -37q-19 25 -49 25q-61 0 -78 -81l-14 -68h83l-10 -45h-83zM322 0h-51l97 438h-64l10 45h64l15 68q27 126 127 126q35 0 60 -16l-22 -41q-15 12 -37 12q-59 0 -78 -81l-14 -68h83l-10 -45h-83z M647 559q-15 0 -25.5 10.5t-10.5 24.5q0 18 14 30.5t30 12.5q15 0 25.5 -10t10.5 -24q0 -19 -14 -31.5t-30 -12.5zM544 0h-50l107 483h50z" />
<glyph unicode="&#xfb04;" horiz-adv-x="669" d="M83 0h-51l97 438h-64l10 45h64l15 69q27 125 127 125q50 0 80 -33l-30 -37q-19 25 -49 25q-61 0 -78 -81l-14 -68h83l-10 -45h-83zM322 0h-51l97 438h-64l10 45h64l15 68q27 126 127 126q35 0 60 -16l-22 -41q-15 12 -37 12q-59 0 -78 -81l-14 -68h83l-10 -45h-83zM544 0 h-50l147 667h50z" />
<glyph unicode="fb" horiz-adv-x="708" d="M83 0h-51l97 438h-64l10 45h64l15 68q27 126 127 126q35 0 60 -16l-22 -41q-15 12 -37 12q-59 0 -78 -81l-14 -68h83l-10 -45h-83zM453 -12q-44 0 -78 23t-52 66l-17 -77h-50l147 667h50l-55 -253q53 81 133 81q64 0 102.5 -44.5t38.5 -123.5q0 -73 -25 -149.5t-77 -133 t-117 -56.5zM448 33q50 0 90.5 50t60 115t19.5 123q0 62 -27.5 95.5t-75.5 33.5q-37 0 -72 -26.5t-58 -65.5l-52 -235q11 -38 42.5 -64t72.5 -26z" />
<glyph unicode="fh" horiz-adv-x="689" d="M83 0h-51l97 438h-64l10 45h64l15 68q27 126 127 126q35 0 60 -16l-22 -41q-15 12 -37 12q-59 0 -78 -81l-14 -68h83l-10 -45h-83zM565 0h-51l78 355q5 20 5 31q0 64 -74 64q-69 0 -137 -88l-80 -362h-50l147 667h50l-55 -254q69 82 145 82q49 0 78 -25t29 -69 q0 -12 -5 -37z" />
<glyph unicode="fk" horiz-adv-x="663" d="M83 0h-51l97 438h-64l10 45h64l15 68q27 126 127 126q35 0 60 -16l-22 -41q-15 12 -37 12q-59 0 -78 -81l-14 -68h83l-10 -45h-83zM590 0h-57l-98 233l-99 -97l-30 -136h-50l147 667h50l-101 -460l283 276h63l-223 -218z" />
<glyph unicode=" "  horiz-adv-x="217" />
<glyph unicode="&#x09;" horiz-adv-x="217" />
<glyph unicode="&#xa0;" horiz-adv-x="217" />
<glyph unicode="!" horiz-adv-x="218" d="M113 173h-40l96 494h66zM58 -10q-16 0 -27.5 11.5t-11.5 28.5q0 19 13.5 32.5t33.5 13.5q16 0 27.5 -11t11.5 -28q0 -19 -13.5 -33t-33.5 -14z" />
<glyph unicode="&#x22;" horiz-adv-x="315" d="M146 429h-28q24 196 25 205q2 19 13 31t29 12q13 0 22 -9t9 -23l-5 -20zM276 429h-28q24 196 25 205q2 19 13 31t29 12q13 0 22 -9t9 -23l-5 -20z" />
<glyph unicode="#" horiz-adv-x="494" d="M192 0h-46l95 186h-96l-94 -186h-46l94 186h-91l19 41h92l109 213h-93l18 40h95l93 187h46l-93 -187h95l93 187h46l-94 -187h91l-17 -40h-94l-109 -213h95l-19 -41h-95zM259 227l110 213h-96l-108 -213h94z" />
<glyph unicode="$" horiz-adv-x="454" d="M136 -100l20 92q-49 7 -89.5 30.5t-60.5 56.5l40 41q40 -65 121 -79l63 284q-29 20 -45.5 33t-37 34.5t-30 46t-9.5 54.5q0 77 57.5 131t136.5 54h7l20 90h45l-22 -95q82 -17 121 -73l-38 -40q-33 49 -94 62l-57 -259q37 -26 58.5 -45.5t40.5 -53.5t19 -72 q0 -84 -55.5 -143.5t-146.5 -60.5l-19 -88h-45zM343 186q0 34 -19 59.5t-55 52.5l-57 -259q60 4 95.5 46t35.5 101zM168 499q0 -32 20 -57t57 -52l52 237q-55 -1 -92 -39.5t-37 -88.5z" />
<glyph unicode="%" horiz-adv-x="641" d="M114 0h-40l495 667h42zM432 -12q-56 0 -89 36t-33 91q0 85 48 142.5t111 57.5q56 0 89 -35.5t33 -90.5q0 -85 -48 -143t-111 -58zM433 26q44 0 79 46.5t35 112.5q0 43 -21.5 67.5t-57.5 24.5q-44 0 -79 -46.5t-35 -112.5q0 -43 21.5 -67.5t57.5 -24.5zM210 350 q-55 0 -88.5 36t-33.5 90q0 85 48.5 143t111.5 58q55 0 88.5 -36t33.5 -91q0 -84 -48.5 -142t-111.5 -58zM212 388q44 0 78.5 46.5t34.5 112.5q0 43 -21.5 67.5t-56.5 24.5q-45 0 -79.5 -46.5t-34.5 -112.5q0 -43 21.5 -67.5t57.5 -24.5z" />
<glyph unicode="&#x26;" horiz-adv-x="510" d="M418 0h-63l-35 62q-74 -74 -155 -74q-65 0 -106 37t-41 103q0 87 44.5 141.5t124.5 101.5q-16 55 -16 110q0 78 46 137t106 59q47 0 76 -26t29 -78q0 -24 -6.5 -45.5t-13 -37t-24.5 -34.5l-28 -27q-8 -9 -36 -27l-34 -22l-40 -23q11 -33 41 -101q27 -68 47 -107 q51 69 92 155l41 -22q-59 -116 -110 -179zM171 33q60 0 127 72q-37 70 -55 116q-24 57 -43 107q-59 -38 -92 -83.5t-33 -111.5q0 -47 27.5 -73.5t68.5 -26.5zM224 476q0 -34 10 -77q71 40 107.5 78t36.5 95q0 62 -57 62q-36 0 -66.5 -47.5t-30.5 -110.5z" />
<glyph unicode="'" horiz-adv-x="187" d="M146 429h-28q24 196 25 205q2 19 13 31t29 12q13 0 22 -9t9 -23l-5 -20z" />
<glyph unicode="(" horiz-adv-x="208" d="M96 -184l-35 -15q-39 114 -39 240q0 339 233 644l29 -21q-97 -148 -153.5 -316t-56.5 -337q0 -92 22 -195z" />
<glyph unicode=")" horiz-adv-x="208" d="M111 670l35 15q39 -114 39 -240q0 -340 -234 -644l-28 21q97 148 153.5 316t56.5 337q0 83 -22 195z" />
<glyph unicode="*" horiz-adv-x="315" d="M210 400h-38l33 118l-113 -51l-11 33l116 41l-91 63l25 30l83 -73l20 116h38l-32 -119l112 52l11 -33l-115 -41l91 -63l-26 -30l-83 73z" />
<glyph unicode="+" horiz-adv-x="436" d="M423 317h-167l-42 -188h-44l42 188h-167l9 40h167l40 182h44l-40 -182h167z" />
<glyph unicode="," horiz-adv-x="218" d="M107 29q0 -41 -30 -82.5t-71 -62.5l-24 26q28 14 49.5 37.5t28.5 46.5h-7q-14 0 -24 10.5t-10 25.5q0 19 14 32.5t32 13.5q19 0 30.5 -12t11.5 -35z" />
<glyph unicode="-" horiz-adv-x="266" d="M231 219h-207l10 46h206z" />
<glyph unicode="." horiz-adv-x="218" d="M58 -10q-16 0 -27.5 11.5t-11.5 28.5q0 19 13.5 32.5t33.5 13.5q17 0 28.5 -11.5t11.5 -27.5q0 -19 -14 -33t-34 -14z" />
<glyph unicode="/" horiz-adv-x="235" d="M-14 -20h-45l348 707h46z" />
<glyph unicode="0" horiz-adv-x="502" d="M216 -12q-78 0 -120 55.5t-42 158.5t31.5 210t96 186t143.5 79q77 0 119 -55t42 -158q0 -76 -19 -158t-52 -153.5t-86 -118t-113 -46.5zM220 39q60 0 110.5 76.5t75 174.5t24.5 181q0 155 -109 155q-46 0 -87 -45t-67 -112t-41.5 -140.5t-15.5 -133.5q0 -156 110 -156z " />
<glyph unicode="1" horiz-adv-x="288" d="M158 0h-55l130 592l-128 -113l-27 37l177 151h50z" />
<glyph unicode="2" horiz-adv-x="477" d="M355 0h-353l13 58l80 75l73 69l62 58q36 35 55 56l43 47q24 27 36.5 45.5t24.5 40.5t16.5 40.5t4.5 37.5q0 46 -31 73t-80 27q-83 0 -140 -72l-34 36q73 86 176 86q72 0 120.5 -37.5t48.5 -107.5q0 -89 -102 -207q-54 -61 -233 -232l-46 -43h277z" />
<glyph unicode="3" horiz-adv-x="457" d="M191 -12q-69 0 -121 36.5t-69 99.5l47 26q16 -53 54 -82t89 -29q66 0 106 52t40 124q0 49 -33 76t-85 27q-33 0 -43 -1l13 53q8 -1 66 -1q61 0 102.5 45t41.5 111q0 46 -32 73.5t-85 27.5q-76 0 -137 -73l-32 34q31 41 77 65.5t97 24.5q76 0 123 -38.5t47 -107.5 q0 -72 -46.5 -127t-111.5 -65q43 -13 68.5 -48.5t25.5 -82.5q0 -88 -57 -154t-145 -66z" />
<glyph unicode="4" horiz-adv-x="440" d="M286 0h-55l40 183h-261l12 54l337 430h74l-96 -434h76l-11 -50h-76zM281 233l82 367l-288 -367h206z" />
<glyph unicode="5" horiz-adv-x="477" d="M207 -12q-136 0 -181 134l48 26q29 -109 136 -109q62 0 109.5 64.5t47.5 147.5q0 54 -30.5 84.5t-82.5 30.5q-60 0 -120 -54l-38 22l74 333h315l-11 -50h-259l-56 -251q46 48 118 48q64 0 106 -42.5t42 -116.5q0 -105 -63 -186t-155 -81z" />
<glyph unicode="6" horiz-adv-x="478" d="M213 -12q-81 0 -121.5 54t-40.5 147q0 47 9.5 106.5t31.5 127.5t53 124t80.5 93t107.5 37q55 0 95 -28t57 -78l-43 -32q-24 87 -112 87q-42 0 -77 -26t-59.5 -71t-41 -91.5t-28.5 -101.5q-2 -8 -4 -19q26 38 69.5 66t90.5 28q66 0 107.5 -39.5t41.5 -111.5 q0 -64 -25.5 -125.5t-76.5 -104t-114 -42.5zM217 39q67 0 111 70.5t44 145.5q0 48 -29.5 78t-80.5 30q-79 0 -152 -106q-6 -38 -6 -78q0 -65 28.5 -102.5t84.5 -37.5z" />
<glyph unicode="7" horiz-adv-x="404" d="M108 0h-63l348 617h-283l11 50h348l-9 -38z" />
<glyph unicode="8" horiz-adv-x="471" d="M207 -12q-82 0 -131 37.5t-49 109.5q0 74 48 131t133 84q-38 20 -66 57.5t-28 82.5q0 79 58 133t135 54q70 0 119 -37.5t49 -106.5q0 -76 -48 -125.5t-120 -68.5q41 -25 70 -65t29 -89q0 -84 -58 -140.5t-141 -56.5zM262 366q65 12 109.5 53.5t44.5 108.5 q0 43 -31.5 70.5t-81.5 27.5q-54 0 -93 -40.5t-39 -102.5q0 -38 28.5 -70.5t62.5 -46.5zM206 39q56 0 99.5 43.5t43.5 108.5q0 48 -31 83.5t-65 46.5q-70 -12 -118.5 -60t-48.5 -116q0 -51 34.5 -78.5t85.5 -27.5z" />
<glyph unicode="9" horiz-adv-x="478" d="M304 678q81 0 121.5 -54t40.5 -147q0 -47 -9.5 -106.5t-31.5 -127.5t-53 -124t-80.5 -93t-107.5 -37q-55 0 -95 28t-57 78l43 32q24 -87 112 -87q42 0 77 26t59.5 71t41 91.5t28.5 101.5q2 8 4 19q-27 -38 -70 -66t-90 -28q-66 0 -107.5 39.5t-41.5 111.5 q0 64 25.5 125.5t76.5 104t114 42.5zM300 627q-67 0 -111 -70.5t-44 -145.5q0 -48 29.5 -78t80.5 -30q79 0 152 106q6 38 6 78q0 65 -28.5 102.5t-84.5 37.5z" />
<glyph unicode=":" horiz-adv-x="217" d="M58 -10q-16 0 -27.5 11.5t-11.5 28.5q0 19 13.5 32.5t33.5 13.5q17 0 28.5 -11.5t11.5 -27.5q0 -19 -14 -33t-34 -14zM150 404q-16 0 -28 12t-12 28q0 19 14 32.5t34 13.5q17 0 28 -11.5t11 -28.5q0 -19 -14 -32.5t-33 -13.5z" />
<glyph unicode=";" horiz-adv-x="218" d="M107 29q0 -41 -30 -82.5t-71 -62.5l-24 26q28 14 49.5 37.5t28.5 46.5h-7q-14 0 -24 10.5t-10 25.5q0 19 14 32.5t32 13.5q19 0 30.5 -12t11.5 -35zM150 404q-16 0 -28 12t-12 28q0 19 14 32.5t34 13.5q17 0 28 -11.5t11 -28.5q0 -19 -14 -32.5t-33 -13.5z" />
<glyph unicode="&#x3c;" horiz-adv-x="436" d="M380 127l-336 189l9 37l420 190l-12 -51l-361 -160l290 -159z" />
<glyph unicode="=" horiz-adv-x="436" d="M444 412h-378l9 40h378zM400 216h-378l9 40h379z" />
<glyph unicode="&#x3e;" horiz-adv-x="436" d="M423 316l-421 -189l12 50l363 159l-292 161l10 46l336 -190z" />
<glyph unicode="?" horiz-adv-x="386" d="M208 199l-46 -23q-19 31 -19 67q0 39 22.5 71t54.5 55l63 45q32 22 54.5 53.5t22.5 69.5q0 39 -29 65t-78 26q-67 0 -119 -49l-23 39q65 59 150 59q71 0 114.5 -37.5t43.5 -93.5q0 -46 -23 -83.5t-56 -62.5l-67 -48q-33 -22 -56 -49t-23 -57q0 -27 14 -47zM139 -10 q-16 0 -27.5 11.5t-11.5 28.5q0 19 13.5 32.5t33.5 13.5q17 0 28.5 -11t11.5 -28q0 -19 -14 -33t-34 -14z" />
<glyph unicode="@" horiz-adv-x="684" d="M326 -70q-119 0 -195 84t-76 216q0 162 108.5 285t251.5 123q113 0 183.5 -79t70.5 -205q0 -118 -46 -193.5t-105 -75.5q-35 0 -56.5 22.5t-22.5 55.5l-1 6q-24 -36 -59 -60t-76 -24q-53 0 -87 36.5t-34 104.5q0 106 62.5 190t147.5 84q38 0 63.5 -22.5t36.5 -56.5l13 61 h47l-60 -285q-2 -10 -2 -24q0 -48 40 -48q14 0 31.5 14t35 40t29 72.5t11.5 103.5q0 114 -62 182.5t-162 68.5q-85 0 -161 -54t-120 -140.5t-44 -180.5q0 -120 68 -195t174 -75q83 0 160 57l16 -25q-85 -63 -180 -63zM314 125q71 0 134 95l34 160q-8 32 -29.5 55.5 t-55.5 23.5q-69 0 -116.5 -73.5t-47.5 -156.5q0 -48 21 -76t60 -28z" />
<glyph unicode="A" horiz-adv-x="493" d="M427 0h-58l-12 165h-252l-84 -165h-63l348 667h67zM355 215l-27 387l-199 -387h226z" />
<glyph unicode="B" horiz-adv-x="498" d="M233 0h-212l147 667h177q64 0 104.5 -38.5t40.5 -101.5q0 -70 -39 -125t-99 -65q36 -10 58 -47t22 -79q0 -85 -53 -148t-146 -63zM301 367q64 0 96.5 48t32.5 106q0 44 -27.5 70t-70.5 26h-119l-55 -250h143zM233 50q64 0 102.5 49t38.5 114q0 49 -27 76.5t-76 27.5h-125 l-59 -267h146z" />
<glyph unicode="C" horiz-adv-x="523" d="M265 -12q-95 0 -152.5 62t-57.5 173q0 76 23 156.5t62.5 147t98.5 109t124 42.5q70 0 118.5 -37.5t71.5 -103.5l-53 -17q-38 107 -141 107q-65 0 -123 -65t-90 -158t-32 -182q0 -87 41 -135t114 -48q75 0 144 81l42 -28q-83 -104 -190 -104z" />
<glyph unicode="D" horiz-adv-x="550" d="M183 0h-162l147 667h158q83 0 141.5 -64t58.5 -174q0 -48 -11.5 -102.5t-38.5 -113.5t-65 -105.5t-97.5 -77t-130.5 -30.5zM213 617l-126 -567h105q65 0 119.5 39t87.5 98t51 122t18 118q0 88 -43 139t-109 51h-103z" />
<glyph unicode="E" horiz-adv-x="453" d="M347 0h-326l147 667h326l-10 -50h-271l-55 -250h263l-11 -50h-264l-59 -267h271z" />
<glyph unicode="F" horiz-adv-x="441" d="M77 0h-56l147 667h326l-10 -50h-271l-55 -250h263l-11 -50h-264z" />
<glyph unicode="G" horiz-adv-x="553" d="M265 -12q-96 0 -153 62.5t-57 172.5q0 104 37.5 207.5t111 175.5t161.5 72q71 0 117.5 -37.5t68.5 -98.5l-50 -19q-37 104 -142 104q-66 0 -124 -64.5t-89.5 -157.5t-31.5 -183q0 -89 41 -136t114 -47q76 0 140 70l38 172h-175l11 50h228l-54 -245q-85 -98 -192 -98z" />
<glyph unicode="H" horiz-adv-x="560" d="M431 0h-56l70 318h-298l-70 -318h-56l147 667h56l-66 -299h299l65 299h56z" />
<glyph unicode="I" horiz-adv-x="206" d="M77 0h-56l147 667h56z" />
<glyph unicode="J" horiz-adv-x="390" d="M114 -12q-99 0 -141 71l34 39q33 -59 104 -59q103 0 130 124l111 504h56l-111 -505q-39 -174 -183 -174z" />
<glyph unicode="K" horiz-adv-x="491" d="M418 0h-64l-147 312l-81 -88l-49 -224h-56l147 667h56l-79 -356l328 356h72l-298 -318z" />
<glyph unicode="L" horiz-adv-x="402" d="M319 0h-305l147 667h56l-137 -617h250z" />
<glyph unicode="M" horiz-adv-x="662" d="M533 0h-56l128 580l-317 -580h-22l-61 580l-128 -580h-56l147 667h79l57 -534l293 534h83z" />
<glyph unicode="N" horiz-adv-x="558" d="M429 0h-54l-175 555l-123 -555h-56l147 667h56l175 -547l121 547h56z" />
<glyph unicode="O" horiz-adv-x="590" d="M265 -12q-95 0 -152.5 64t-57.5 171q0 100 36.5 203t109.5 177.5t162 74.5q95 0 153 -64.5t58 -170.5q0 -73 -22 -152t-61 -147t-98.5 -112t-127.5 -44zM269 39q66 0 124 64t89.5 156.5t31.5 183.5q0 87 -43 135.5t-113 48.5q-66 0 -124 -64.5t-89 -157t-31 -183.5 q0 -86 42.5 -134.5t112.5 -48.5z" />
<glyph unicode="P" horiz-adv-x="468" d="M77 0h-56l147 667h173q63 0 104.5 -44.5t41.5 -111.5q0 -92 -57.5 -162.5t-164.5 -70.5h-127zM273 328h-2q74 0 115 53.5t41 126.5q0 49 -27.5 79t-70.5 30h-116l-64 -289h124z" />
<glyph unicode="Q" horiz-adv-x="590" d="M265 -12q-95 0 -152.5 64t-57.5 171q0 100 36.5 203t109.5 177.5t162 74.5q95 0 153 -64.5t58 -170.5q0 -108 -45.5 -222t-120.5 -177l25 -57l-46 -18l-21 46q-49 -27 -101 -27zM269 39q39 0 77 24l-59 136l45 18l53 -122q58 58 93.5 155.5t35.5 192.5q0 87 -43 135.5 t-113 48.5q-66 0 -124 -64.5t-89 -157t-31 -183.5q0 -86 42.5 -134.5t112.5 -48.5z" />
<glyph unicode="R" horiz-adv-x="491" d="M388 0h-61l-78 278h-111l-61 -278h-56l147 667h167q63 0 108 -43t45 -112q0 -91 -52 -155t-133 -74zM272 328q73 0 114.5 53.5t41.5 127.5q0 49 -29 78.5t-70 29.5h-116l-64 -289h123z" />
<glyph unicode="S" horiz-adv-x="459" d="M197 -12q-62 0 -114.5 25.5t-77.5 65.5l40 41q24 -38 65 -59.5t89 -21.5q65 0 104 42.5t39 104.5q0 30 -17.5 57t-43.5 45l-57 41l-56 43q-26 20 -43.5 52t-17.5 69q0 77 57.5 131t136.5 54q54 0 100 -21t71 -57l-38 -40q-45 67 -135 67q-56 0 -94 -38.5t-38 -89.5 q0 -27 17.5 -52t43.5 -43l56 -42q30 -22 56 -44t43.5 -55t17.5 -71q0 -84 -56.5 -144t-147.5 -60z" />
<glyph unicode="T" horiz-adv-x="435" d="M191 0h-56l137 617h-163l11 50h382l-11 -50h-164z" />
<glyph unicode="U" horiz-adv-x="552" d="M249 -12q-85 0 -135.5 46.5t-50.5 126.5q0 29 5 49l100 457h56l-101 -458q-5 -17 -5 -42q0 -59 36 -94t97 -35q67 0 105 42t57 129l101 458h56l-101 -457q-25 -112 -76.5 -167t-143.5 -55z" />
<glyph unicode="V" horiz-adv-x="493" d="M226 0h-67l-54 667h58l42 -598l306 598h63z" />
<glyph unicode="W" horiz-adv-x="694" d="M473 0h-62l6 561l-243 -561h-61v667h59l-8 -577l250 577h50l-5 -577l247 577h61z" />
<glyph unicode="X" horiz-adv-x="493" d="M426 0h-61l-106 292l-231 -292h-70l276 344l-118 323h62l98 -277l215 277h71l-262 -329z" />
<glyph unicode="Y" horiz-adv-x="483" d="M216 0h-56l63 286l-122 381h60l98 -325l243 325h66l-289 -381z" />
<glyph unicode="Z" horiz-adv-x="453" d="M357 0h-369l11 49l418 568h-292l10 50h362l-10 -48l-420 -569h301z" />
<glyph unicode="[" horiz-adv-x="200" d="M86 -190h-147l193 868h147l-10 -42h-104l-174 -784h104z" />
<glyph unicode="\" horiz-adv-x="235" d="M133 -20l-40 707h44l40 -707h-44z" />
<glyph unicode="]" horiz-adv-x="200" d="M67 -190h-146l10 42h103l173 784h-103l9 42h147z" />
<glyph unicode="^" horiz-adv-x="377" d="M377 333h-43l-59 291l-189 -291h-48l224 334h40z" />
<glyph unicode="_" horiz-adv-x="422" d="M352 -82h-427l10 42h427z" />
<glyph unicode="`" horiz-adv-x="174" d="M243 556h-39l-103 144h58z" />
<glyph unicode="&#x2cb;" horiz-adv-x="174" d="M243 556h-39l-103 144h58z" />
<glyph unicode="a" d="M255 495q44 0 78 -23t52 -66l16 77h51l-107 -483h-51l16 69q-55 -81 -134 -81q-64 0 -102 45t-38 123q0 74 25 150t77 132.5t117 56.5zM260 450q-50 0 -90.5 -50t-60 -115t-19.5 -123q0 -62 27 -95.5t76 -33.5q36 0 71.5 27t57.5 65l52 235q-11 38 -42 64t-72 26z" />
<glyph unicode="b" d="M214 -12q-44 0 -78 23t-52 66l-17 -77h-50l147 667h50l-55 -253q53 81 133 81q64 0 102.5 -44.5t38.5 -123.5q0 -73 -25 -149.5t-77 -133t-117 -56.5zM209 33q50 0 90.5 50t60 115t19.5 123q0 62 -27.5 95.5t-75.5 33.5q-37 0 -72 -26.5t-58 -65.5l-52 -235 q11 -38 42.5 -64t72.5 -26z" />
<glyph unicode="c" horiz-adv-x="400" d="M205 -12q-76 0 -122 48.5t-46 138.5q0 74 28 146.5t84 123t124 50.5q90 0 132 -69l-35 -32q-31 56 -96 56q-55 0 -98.5 -46.5t-64 -108.5t-20.5 -122q0 -69 32.5 -104.5t87.5 -35.5t98 48l23 -36q-55 -57 -127 -57z" />
<glyph unicode="d" d="M255 495q44 0 78 -23t52 -66l57 261h51l-148 -667h-51l16 69q-55 -81 -134 -81q-64 0 -102 45t-38 123q0 74 25 150t77 132.5t117 56.5zM260 450q-50 0 -90.5 -50t-60 -115t-19.5 -123q0 -62 27 -95.5t76 -33.5q36 0 71.5 27t57.5 65l52 235q-11 38 -42 64t-72 26z" />
<glyph unicode="e" horiz-adv-x="464" d="M216 -12q-84 0 -131.5 49.5t-47.5 136.5q0 66 26 138.5t81.5 127.5t124.5 55q74 0 116.5 -46.5t42.5 -129.5q0 -48 -13 -94h-321q-5 -28 -5 -53q0 -62 34 -101.5t97 -39.5t117 56l23 -34q-63 -65 -144 -65zM369 265h4q6 25 6 54q0 58 -29.5 95.5t-84.5 37.5 q-60 0 -106 -57.5t-58 -129.5h268z" />
<glyph unicode="f" horiz-adv-x="239" d="M83 0h-51l97 438h-64l10 45h64l15 69q27 125 127 125q50 0 80 -33l-30 -37q-19 25 -49 25q-61 0 -78 -81l-14 -68h83l-10 -45h-83z" />
<glyph unicode="g" d="M151 -196q-112 0 -164 68l34 39q41 -62 131 -62q107 0 139 138l20 86q-54 -81 -137 -81q-62 0 -100 43t-38 126q0 72 24 146.5t75.5 131t118.5 56.5q39 0 76 -25t55 -64l17 77h50l-111 -496q-41 -183 -190 -183zM192 37q35 0 70.5 25.5t59.5 63.5l52 233q-12 38 -45 64.5 t-72 26.5q-49 0 -89 -49t-59 -113t-19 -122q0 -64 27 -96.5t75 -32.5z" />
<glyph unicode="h" horiz-adv-x="450" d="M326 0h-51l78 355q5 20 5 31q0 64 -74 64q-69 0 -137 -88l-80 -362h-50l147 667h50l-55 -254q69 82 145 82q49 0 78 -25t29 -69q0 -12 -5 -37z" />
<glyph unicode="i" horiz-adv-x="192" d="M170 559q-16 0 -26 10.5t-10 24.5q0 18 14 30.5t30 12.5q15 0 25.5 -10t10.5 -24q0 -19 -14 -31.5t-30 -12.5zM67 0h-50l107 483h50z" />
<glyph unicode="j" horiz-adv-x="192" d="M-66 -196q-59 0 -84 39l32 35q15 -29 49 -29q51 0 69 79l124 555h50l-123 -555q-15 -66 -42.5 -95t-74.5 -29zM170 559q-16 0 -26 10.5t-10 24.5q0 18 14 30.5t30 12.5q15 0 25.5 -10t10.5 -24q0 -19 -14 -31.5t-30 -12.5z" />
<glyph unicode="k" horiz-adv-x="425" d="M351 0h-57l-98 233l-99 -97l-30 -136h-50l147 667h50l-101 -460l283 276h63l-223 -218z" />
<glyph unicode="l" horiz-adv-x="192" d="M67 0h-50l147 667h50z" />
<glyph unicode="m" horiz-adv-x="670" d="M545 0h-51l80 359q4 20 4 27q0 31 -18 47.5t-47 16.5q-32 0 -66.5 -25.5t-60.5 -61.5l-80 -363h-51l80 359q4 24 4 31q0 28 -17 44t-48 16q-60 0 -127 -87l-80 -363h-50l107 483h50l-15 -70q25 33 60.5 57.5t73.5 24.5q46 0 72 -25t26 -56v-8q67 89 142 89q43 0 70.5 -25 t27.5 -68q0 -14 -6 -38z" />
<glyph unicode="n" horiz-adv-x="450" d="M326 0h-51l78 355q5 23 5 31q0 64 -74 64q-68 0 -137 -87l-80 -363h-50l107 483h50l-15 -70q69 82 145 82q49 0 78 -24.5t29 -69.5q0 -15 -5 -37z" />
<glyph unicode="o" d="M200 -12q-75 0 -119 47.5t-44 133.5q0 75 27.5 148.5t82 125.5t122.5 52q75 0 118.5 -47.5t43.5 -133.5q0 -75 -27.5 -148.5t-82 -125.5t-121.5 -52zM202 33q73 0 124.5 93.5t51.5 187.5q0 66 -29.5 101t-82.5 35q-73 0 -124.5 -93.5t-51.5 -187.5q0 -66 29.5 -101 t82.5 -35z" />
<glyph unicode="p" horiz-adv-x="468" d="M214 -12q-44 0 -78 23t-52 66l-58 -261h-50l148 667h50l-15 -69q53 81 133 81q64 0 102.5 -44.5t38.5 -123.5q0 -73 -25 -149.5t-77 -133t-117 -56.5zM209 33q50 0 90.5 50t60 115t19.5 123q0 62 -27.5 95.5t-75.5 33.5q-37 0 -72 -26.5t-58 -65.5l-52 -235 q11 -38 42.5 -64t72.5 -26z" />
<glyph unicode="q" horiz-adv-x="468" d="M255 495q44 0 78 -23t52 -66l16 77h51l-148 -667h-51l57 253q-55 -81 -134 -81q-64 0 -102 45t-38 123q0 74 25 150t77 132.5t117 56.5zM260 450q-50 0 -90.5 -50t-60 -115t-19.5 -123q0 -62 27 -95.5t76 -33.5q36 0 71.5 27t57.5 65l52 235q-11 38 -42 64t-72 26z" />
<glyph unicode="r" horiz-adv-x="278" d="M67 0h-50l107 483h50l-16 -74q32 43 67.5 63.5t89.5 20.5l-12 -55q-9 3 -28 3q-37 0 -72 -25.5t-58 -63.5z" />
<glyph unicode="s" horiz-adv-x="377" d="M152 -12q-110 0 -155 75l35 33q17 -28 49 -46.5t72 -18.5q47 0 77.5 29t30.5 69q0 27 -20 49.5t-48 39.5l-56 34q-28 17 -48 44t-20 60q0 58 41.5 98.5t111.5 40.5q46 0 83.5 -19t56.5 -49l-33 -33q-13 26 -43.5 42t-66.5 16q-44 0 -71.5 -24.5t-27.5 -61.5q0 -25 20 -46 t48 -38l56 -34q29 -19 49 -46.5t20 -61.5q0 -63 -44.5 -107.5t-116.5 -44.5z" />
<glyph unicode="t" horiz-adv-x="248" d="M127 -12q-83 0 -83 72q0 14 4 30l78 348h-66l10 45h66l29 132h50l-29 -132h83l-10 -45h-83l-76 -342q-3 -12 -3 -25q0 -38 40 -38q22 0 42 18l12 -39q-27 -24 -64 -24z" />
<glyph unicode="u" horiz-adv-x="450" d="M123 483h51l-78 -355q-5 -22 -5 -31q0 -64 75 -64q69 0 135 85l81 365h51l-107 -483h-51l15 70q-69 -82 -144 -82q-50 0 -79 24t-29 70q0 14 5 37z" />
<glyph unicode="v" horiz-adv-x="392" d="M170 0h-57l-50 483h54l36 -423l225 423h57z" />
<glyph unicode="w" horiz-adv-x="617" d="M416 0h-50l-21 413l-202 -413h-50l-23 483h52l12 -411l201 411h48l19 -411l195 411h56z" />
<glyph unicode="x" horiz-adv-x="393" d="M323 0h-56l-76 208l-168 -208h-60l203 246l-88 237h55l70 -198l158 198h60l-194 -237z" />
<glyph unicode="y" horiz-adv-x="392" d="M-55 -186l19 45q10 -7 35 -7q18 0 32 11t31 41l50 87l-49 492h54l36 -421l225 421h57l-327 -593q-48 -86 -114 -86q-29 0 -49 10z" />
<glyph unicode="z" horiz-adv-x="379" d="M279 0h-286l8 42l307 396h-218l10 45h282l-9 -41l-308 -397h223z" />
<glyph unicode="{" horiz-adv-x="222" d="M108 -190h-38q-35 0 -61 24t-26 62q0 15 4 27l51 231q2 10 2 18q0 24 -10 38.5t-29 14.5l9 38q53 0 68 71l51 233q26 111 125 111h47l-10 -42h-46q-57 0 -72 -69l-54 -240q-15 -70 -64 -88q29 -14 29 -53q0 -18 -4 -34l-50 -230q-3 -18 -3 -19q0 -23 13.5 -37t33.5 -14 h43z" />
<glyph unicode="|" horiz-adv-x="192" d="M137 -20h-42v707h42v-707z" />
<glyph unicode="}" horiz-adv-x="222" d="M113 678h38q35 0 61 -24t26 -63q0 -6 -4 -26l-51 -231q-2 -10 -2 -19q0 -52 38 -52l-9 -38q-52 0 -67 -71l-52 -233q-25 -111 -125 -111h-46l10 42h46q27 0 46 18t26 51l53 240q14 69 64 88q-29 14 -29 53q0 18 4 34l51 230q2 12 2 19q0 23 -13.5 37t-32.5 14h-44z" />
<glyph unicode="~" horiz-adv-x="443" d="M466 667l42 -4q-55 -234 -162 -234q-33 0 -50.5 20t-21.5 49t-6 58t-11 49t-31 20q-68 0 -116 -198l-41 6q53 232 160 232q33 0 51 -20.5t22 -49.5t6 -57.5t11 -49t31 -20.5q69 0 116 199z" />
<glyph unicode="&#xa1;" horiz-adv-x="218" d="M104 310h39l-96 -494h-66zM158 493q16 0 27.5 -11.5t11.5 -28.5q0 -19 -13.5 -32.5t-33.5 -13.5q-16 0 -27.5 11.5t-11.5 27.5q0 20 13.5 33.5t33.5 13.5z" />
<glyph unicode="&#xa2;" horiz-adv-x="400" d="M205 -12q-2 0 -6.5 0.5t-6.5 0.5l-19 -89h-44l21 96q-52 15 -82.5 61t-30.5 118q0 71 26.5 142t79.5 122t118 55l16 71h44l-16 -73q65 -10 100 -66l-35 -32q-25 46 -75 54l-93 -415h9q55 0 98 48l23 -36q-55 -57 -127 -57zM91 173q0 -101 69 -131l91 406 q-72 -14 -116 -100t-44 -175z" />
<glyph unicode="&#xa3;" horiz-adv-x="433" d="M29 268l9 41h106l-18 37q-16 31 -22.5 53.5t-6.5 49.5q0 91 61 159.5t145 68.5q58 0 102.5 -30.5t53.5 -81.5l-50 -20q-7 37 -35 60.5t-70 23.5q-58 0 -102.5 -52t-44.5 -131q0 -26 7.5 -49t20.5 -49t18 -39h111l-9 -41h-94q1 -4 1 -11q0 -56 -34.5 -108.5t-78.5 -80.5 q24 9 42 9q29 0 71 -19.5t64 -19.5q47 0 83 38l14 -44q-45 -45 -103 -45q-40 0 -85 22t-77 22q-40 0 -96 -38l-13 45q65 30 112 89t47 118q0 7 -2 23h-127z" />
<glyph unicode="&#xa4;" horiz-adv-x="522" d="M461 136l-34 -27l-37 49q-61 -44 -132 -44q-83 0 -145 59l-79 -66l-23 31l77 63q-31 56 -31 108q0 95 80 173l-37 49l32 26l39 -48q60 43 133 43q81 0 143 -57l78 64l25 -30l-78 -64q31 -51 31 -108q0 -91 -80 -173zM454 351q0 68 -43.5 110.5t-111.5 42.5 q-77 0 -135 -56.5t-58 -132.5q0 -68 43.5 -110.5t111.5 -42.5q77 0 135 56.5t58 132.5z" />
<glyph unicode="&#xa5;" horiz-adv-x="483" d="M219 0h-56l28 126h-197l10 40h196l26 120h-196l9 40h174l-109 341h60l98 -325l243 325h66l-259 -341h168l-9 -40h-189l-26 -120h188l-9 -40h-188z" />
<glyph unicode="&#xa6;" horiz-adv-x="192" d="M137 -20h-42v316h42v-316zM137 371h-42v316h42v-316z" />
<glyph unicode="&#xa7;" horiz-adv-x="378" d="M351 318q0 -49 -29 -86.5t-86 -54.5q60 -40 60 -104q0 -62 -43.5 -108t-113.5 -46q-112 0 -164 71l36 32q38 -62 126 -62q45 0 76 31t31 75q0 27 -19.5 48.5t-46.5 37.5l-56 32q-28 17 -47.5 44.5t-19.5 62.5q0 51 35 88t98 45q-79 46 -79 114q0 57 42 98t107 41 q103 0 150 -66l-34 -28q-36 54 -114 54q-42 0 -71 -27t-29 -65q0 -27 19.5 -49t47.5 -38l57 -32q28 -17 47.5 -44.5t19.5 -63.5zM300 308q0 56 -71 93q-64 -8 -94 -36.5t-30 -65.5q0 -30 24 -53.5t71 -47.5q100 32 100 110z" />
<glyph unicode="&#xa8;" horiz-adv-x="260" d="M329 605q0 -16 -12 -28.5t-28 -12.5q-14 0 -23.5 9.5t-9.5 23.5q0 16 12 28t29 12q13 0 22.5 -9.5t9.5 -22.5zM161 605q0 -17 -12.5 -29t-28.5 -12q-14 0 -23 9.5t-9 23.5q0 16 12 28t29 12q13 0 22.5 -9.5t9.5 -22.5z" />
<glyph unicode="&#xa9;" horiz-adv-x="778" d="M754 334q0 -143 -101.5 -244t-244.5 -101q-142 0 -243 101t-101 244t100.5 244t243.5 101t244.5 -101t101.5 -244zM726 334q0 130 -93.5 223.5t-224.5 93.5q-130 0 -223 -93t-93 -224t93 -224t223 -93q131 0 224.5 93.5t93.5 223.5zM505 197l17 -25q-60 -52 -133 -52 q-88 0 -140 53.5t-52 133.5q0 101 72 171.5t164 70.5q106 0 155 -80l-27 -19q-37 69 -128 69q-77 0 -140 -61.5t-63 -150.5q0 -66 44.5 -111.5t114.5 -45.5q67 0 116 47z" />
<glyph unicode="&#xaa;" horiz-adv-x="346" d="M241 614q-47 0 -80 -56t-33 -118q0 -42 18.5 -64.5t50.5 -22.5q48 0 87 57l33 150q-7 23 -28.5 38.5t-47.5 15.5zM335 640h42l-70 -314h-42l11 47q-39 -55 -93 -55q-44 0 -71 30t-27 90q0 77 42.5 143.5t106.5 66.5q29 0 54 -15t37 -40z" />
<glyph unicode="&#xab;" horiz-adv-x="350" d="M162 63h-48l-85 180l165 177h54l-168 -181zM276 63h-48l-85 180l165 177h54l-168 -181z" />
<glyph unicode="&#xac;" horiz-adv-x="437" d="M453 452l-53 -236h-42l43 196h-335l9 40h378z" />
<glyph unicode="&#xad;" horiz-adv-x="266" d="M231 219h-207l10 46h206z" />
<glyph unicode="&#xae;" horiz-adv-x="494" d="M508 465q0 -88 -62.5 -150t-150.5 -62t-149.5 62t-61.5 150t62 150t150 62t150 -61.5t62 -150.5zM481 465q0 77 -54.5 131t-131.5 54t-130.5 -54t-53.5 -131q0 -76 54 -130.5t130 -54.5t131 54.5t55 130.5zM366 343h-36l-42 96h-48l-21 -96h-30l53 243h91q29 0 49 -17.5 t20 -46.5q0 -35 -25 -58.5t-55 -23.5zM370 518q0 19 -12 29.5t-30 10.5h-62l-20 -90h69q23 0 39 14.5t16 35.5z" />
<glyph unicode="&#xaf;" horiz-adv-x="304" d="M380 591h-303l8 37h303z" />
<glyph unicode="&#x203e;" horiz-adv-x="304" d="M380 591h-303l8 37h303z" />
<glyph unicode="&#xb0;" horiz-adv-x="281" d="M326 561q0 -48 -34 -82t-82 -34t-81.5 34t-33.5 82t33.5 82t81.5 34t82 -34t34 -82zM288 561q0 31 -23 54.5t-55 23.5q-31 0 -54 -23t-23 -55t22 -54.5t54 -22.5t55.5 22.5t23.5 54.5z" />
<glyph unicode="&#xb1;" horiz-adv-x="436" d="M424 320h-168l-41 -188h-44l42 188h-167l9 40h167l40 182h43l-39 -182h167zM359 26h-378l8 40h378z" />
<glyph unicode="&#xb2;" horiz-adv-x="319" d="M319 421h-238l8 36q155 129 189 163q62 62 62 109q0 30 -20.5 45.5t-50.5 15.5q-55 0 -94 -48l-24 28q49 57 119 57q47 0 81 -24.5t34 -71.5q0 -23 -11 -47t-25 -43t-46 -49.5t-55 -49.5l-71 -60l-29 -24h179z" />
<glyph unicode="&#xb3;" horiz-adv-x="319" d="M346 540q0 -47 -35 -86.5t-94 -39.5q-94 0 -126 72l33 23q27 -58 92 -58q40 0 63 29.5t23 67.5q0 28 -21.5 44.5t-54.5 16.5q-22 0 -28 -1l9 37q10 -1 43 -1q38 0 63 23t25 62q0 27 -21 44t-53 17q-48 0 -92 -46l-22 27q49 56 117 56q51 0 83 -24t32 -69q0 -42 -27 -73.5 t-71 -37.5q27 -6 44.5 -28.5t17.5 -54.5z" />
<glyph unicode="&#xb4;" horiz-adv-x="174" d="M275 700l-167 -144h-41l148 144h60z" />
<glyph unicode="&#xb5;" horiz-adv-x="450" d="M26 -184h-50l148 667h50l-79 -357q-4 -18 -4 -33q0 -61 66 -61q37 0 77 24.5t66 59.5l82 367h51l-107 -483h-51l14 68q-73 -80 -157 -80q-42 0 -65 15z" />
<glyph unicode="&#x3bc;" horiz-adv-x="450" d="M26 -184h-50l148 667h50l-79 -357q-4 -18 -4 -33q0 -61 66 -61q37 0 77 24.5t66 59.5l82 367h51l-107 -483h-51l14 68q-73 -80 -157 -80q-42 0 -65 15z" />
<glyph unicode="&#xb6;" horiz-adv-x="449" d="M290 -100h-37l162 730h-94l-162 -730h-37l94 423q-57 0 -97 44.5t-40 111.5q0 73 56.5 130.5t137.5 57.5h187z" />
<glyph unicode="&#xb7;" horiz-adv-x="218" d="M105 202q-17 0 -28 11t-11 28q0 19 13.5 32.5t33.5 13.5q17 0 28 -11.5t11 -27.5q0 -19 -13.5 -32.5t-33.5 -13.5z" />
<glyph unicode="&#x2219;" horiz-adv-x="218" d="M105 202q-17 0 -28 11t-11 28q0 19 13.5 32.5t33.5 13.5q17 0 28 -11.5t11 -27.5q0 -19 -13.5 -32.5t-33.5 -13.5z" />
<glyph unicode="&#xb8;" horiz-adv-x="178" d="M1 -189q-56 0 -90 37l23 29q27 -33 70 -33q28 0 43.5 15t15.5 38q0 14 -9 22.5t-24 8.5q-19 0 -33 -17l-24 16l50 84h37l-41 -68q12 11 29 11q23 0 37.5 -15.5t14.5 -40.5q0 -37 -28 -62t-71 -25z" />
<glyph unicode="&#xb9;" horiz-adv-x="208" d="M189 421h-44l74 338l-74 -64l-22 29l115 97h39z" />
<glyph unicode="&#xba;" horiz-adv-x="343" d="M203 318q-55 0 -85.5 33.5t-30.5 91.5q0 73 44.5 139t113.5 66q55 0 86 -33.5t31 -91.5q0 -73 -45 -139t-114 -66zM204 354q50 0 82.5 56.5t32.5 113.5q0 40 -20 63.5t-55 23.5q-51 0 -82.5 -55.5t-31.5 -113.5q0 -41 19.5 -64.5t54.5 -23.5z" />
<glyph unicode="&#xbb;" horiz-adv-x="350" d="M75 420h48l85 -180l-165 -177h-54l169 182zM189 420h48l85 -180l-165 -177h-54l168 182z" />
<glyph unicode="&#xbc;" horiz-adv-x="644" d="M589 667l-496 -667h-41l496 667h41zM584 107h-48l-24 -107h-43l23 107h-167l8 36l211 257h56l-57 -256h49zM500 144l46 206l-171 -206h125zM155 267h-44l74 338l-74 -64l-22 29l115 97h39z" />
<glyph unicode="&#xbd;" horiz-adv-x="679" d="M589 667l-496 -667h-41l496 667h41zM586 0h-238l8 36q155 129 189 163q62 62 62 109q0 30 -20.5 45.5t-50.5 15.5q-55 0 -94 -48l-24 28q49 57 119 57q47 0 81 -24.5t34 -71.5q0 -23 -11 -47t-25 -43t-46 -49.5l-54 -50.5l-72 -59l-29 -24h179zM155 267h-44l74 338 l-74 -64l-22 29l115 97h39z" />
<glyph unicode="&#xbe;" horiz-adv-x="721" d="M666 667l-496 -667h-41l496 667h41zM661 107h-48l-24 -107h-43l23 107h-167l8 36l211 257h56l-57 -256h49zM577 144l46 206l-171 -206h125zM312 386q0 -47 -35 -86.5t-94 -39.5q-94 0 -126 72l33 23q27 -58 92 -58q40 0 63 29.5t23 67.5q0 28 -21.5 44.5t-54.5 16.5 q-22 0 -28 -1l9 37q10 -1 43 -1q38 0 63 23t25 62q0 27 -21 44t-53 17q-48 0 -92 -46l-22 27q49 56 117 56q51 0 83 -24t32 -69q0 -42 -27 -73.5t-71 -37.5q27 -6 44.5 -28.5t17.5 -54.5z" />
<glyph unicode="&#xbf;" horiz-adv-x="328" d="M176 284l46 23q19 -31 19 -67q0 -39 -22 -71t-54 -55l-64 -45q-32 -22 -54 -53.5t-22 -69.5q0 -39 28.5 -65t77.5 -26q66 0 120 49l22 -39q-66 -60 -149 -60q-71 0 -114.5 38t-43.5 94q0 46 23 83.5t56 62.5t66 47.5t56 49.5t23 57q0 28 -14 47zM245 492q17 0 28 -11 t11 -28q0 -19 -13.5 -32.5t-33.5 -13.5q-17 0 -28 11.5t-11 27.5q0 19 13.5 32.5t33.5 13.5z" />
<glyph unicode="&#xc0;" horiz-adv-x="493" d="M406 728h-39l-103 144h58zM427 0h-58l-12 165h-252l-84 -165h-63l348 667h67zM355 215l-27 387l-199 -387h226z" />
<glyph unicode="&#xc1;" horiz-adv-x="493" d="M508 872l-167 -144h-41l148 144h60zM427 0h-58l-12 165h-252l-84 -165h-63l348 667h67zM355 215l-27 387l-199 -387h226z" />
<glyph unicode="&#xc2;" horiz-adv-x="493" d="M464 728h-34l-51 112l-96 -112h-38l114 144h52zM427 0h-58l-12 165h-252l-84 -165h-63l348 667h67zM355 215l-27 387l-199 -387h226z" />
<glyph unicode="&#xc3;" horiz-adv-x="493" d="M406 726q-23 0 -36 16t-16.5 35.5t-12.5 35.5t-26 16q-40 0 -61 -97h-34q29 134 102 134q23 0 36 -16t16.5 -35.5t12.5 -35.5t25 -16q40 0 63 97h34q-29 -134 -103 -134zM427 0h-58l-12 165h-252l-84 -165h-63l348 667h67zM355 215l-27 387l-199 -387h226z" />
<glyph unicode="&#xc4;" horiz-adv-x="493" d="M483 773q0 -16 -12 -28.5t-28 -12.5q-14 0 -23.5 9.5t-9.5 23.5q0 16 12 28t29 12q13 0 22.5 -9.5t9.5 -22.5zM315 773q0 -17 -12.5 -29t-28.5 -12q-14 0 -23 9.5t-9 23.5q0 16 12 28t29 12q13 0 22.5 -9.5t9.5 -22.5zM427 0h-58l-12 165h-252l-84 -165h-63l348 667h67z M355 215l-27 387l-199 -387h226z" />
<glyph unicode="&#xc5;" horiz-adv-x="493" d="M356 692q-35 0 -57 22.5t-22 57.5q0 39 29 68t68 29q34 0 56.5 -22.5t22.5 -57.5q0 -39 -29 -68t-68 -29zM358 723q26 0 45 18.5t19 44.5q0 23 -14 37.5t-36 14.5q-26 0 -45 -19t-19 -44q0 -23 14 -37.5t36 -14.5zM427 0h-58l-12 165h-252l-84 -165h-63l348 667h67z M355 215l-27 387l-199 -387h226z" />
<glyph unicode="&#xc6;" horiz-adv-x="736" d="M628 0h-326l36 165h-200l-113 -165h-63l465 667h348l-10 -50h-271l-55 -250h263l-11 -50h-264l-59 -267h271zM349 215l85 381l-264 -381h179z" />
<glyph unicode="&#xc7;" horiz-adv-x="523" d="M265 -12h-7l-27 -45q12 11 29 11q23 0 37.5 -15.5t14.5 -40.5q0 -37 -28 -62t-71 -25q-56 0 -90 37l23 29q27 -33 70 -33q28 0 43.5 15t15.5 38q0 14 -9 22.5t-24 8.5q-19 0 -33 -17l-24 16l38 65q-77 12 -122.5 72.5t-45.5 158.5q0 76 23 156.5t62.5 147t98.5 109 t124 42.5q70 0 118.5 -37.5t71.5 -103.5l-53 -17q-38 107 -141 107q-65 0 -123 -65t-90 -158t-32 -182q0 -87 41 -135t114 -48q75 0 144 81l42 -28q-83 -104 -190 -104z" />
<glyph unicode="&#xc8;" horiz-adv-x="453" d="M399 728h-39l-103 144h58zM347 0h-326l147 667h326l-10 -50h-271l-55 -250h263l-11 -50h-264l-59 -267h271z" />
<glyph unicode="&#xc9;" horiz-adv-x="453" d="M500 872l-167 -144h-41l148 144h60zM347 0h-326l147 667h326l-10 -50h-271l-55 -250h263l-11 -50h-264l-59 -267h271z" />
<glyph unicode="&#xca;" horiz-adv-x="453" d="M456 728h-34l-51 112l-96 -112h-38l114 144h52zM347 0h-326l147 667h326l-10 -50h-271l-55 -250h263l-11 -50h-264l-59 -267h271z" />
<glyph unicode="&#xcb;" horiz-adv-x="453" d="M474 773q0 -16 -12 -28.5t-28 -12.5q-14 0 -23.5 9.5t-9.5 23.5q0 16 12 28t29 12q14 0 23 -9.5t9 -22.5zM306 773q0 -17 -12 -29t-29 -12q-14 0 -23 9.5t-9 23.5q0 16 12 28t29 12q14 0 23 -9.5t9 -22.5zM347 0h-326l147 667h326l-10 -50h-271l-55 -250h263l-11 -50 h-264l-59 -267h271z" />
<glyph unicode="&#xcc;" horiz-adv-x="206" d="M263 728h-39l-103 144h58zM77 0h-56l147 667h56z" />
<glyph unicode="&#xcd;" horiz-adv-x="206" d="M365 872l-167 -144h-41l148 144h60zM77 0h-56l147 667h56z" />
<glyph unicode="&#xce;" horiz-adv-x="206" d="M321 728h-34l-51 112l-96 -112h-38l114 144h52zM77 0h-56l147 667h56z" />
<glyph unicode="&#xcf;" horiz-adv-x="206" d="M341 772q0 -16 -12 -28.5t-28 -12.5q-14 0 -23.5 9.5t-9.5 23.5q0 16 12 28t29 12q13 0 22.5 -9t9.5 -23zM173 772q0 -16 -12.5 -28.5t-28.5 -12.5q-14 0 -23 9.5t-9 23.5q0 16 12 28t29 12q13 0 22.5 -9t9.5 -23zM77 0h-56l147 667h56z" />
<glyph unicode="&#xd0;" horiz-adv-x="574" d="M207 0h-162l68 310h-82l11 48h82l68 309h158q83 0 141.5 -64t58.5 -174q0 -48 -11.5 -102.5t-38.5 -113.5t-65 -105.5t-97.5 -77t-130.5 -30.5zM303 310h-134l-58 -260h105q65 0 119.5 39t87.5 98t51 122t18 118q0 88 -43 139t-109 51h-103l-58 -259h135z" />
<glyph unicode="&#xd1;" horiz-adv-x="558" d="M440 726q-23 0 -36 16t-16.5 35.5t-12.5 35.5t-26 16q-40 0 -61 -97h-34q29 134 102 134q23 0 36 -16t16.5 -35.5t12.5 -35.5t25 -16q40 0 63 97h34q-29 -134 -103 -134zM429 0h-54l-175 555l-123 -555h-56l147 667h56l175 -547l121 547h56z" />
<glyph unicode="&#xd2;" horiz-adv-x="590" d="M456 728h-39l-103 144h58zM265 -12q-95 0 -152.5 64t-57.5 171q0 100 36.5 203t109.5 177.5t162 74.5q95 0 153 -64.5t58 -170.5q0 -73 -22 -152t-61 -147t-98.5 -112t-127.5 -44zM269 39q66 0 124 64t89.5 156.5t31.5 183.5q0 87 -43 135.5t-113 48.5q-66 0 -124 -64.5 t-89 -157t-31 -183.5q0 -86 42.5 -134.5t112.5 -48.5z" />
<glyph unicode="&#xd3;" horiz-adv-x="590" d="M557 872l-167 -144h-41l148 144h60zM265 -12q-95 0 -152.5 64t-57.5 171q0 100 36.5 203t109.5 177.5t162 74.5q95 0 153 -64.5t58 -170.5q0 -73 -22 -152t-61 -147t-98.5 -112t-127.5 -44zM269 39q66 0 124 64t89.5 156.5t31.5 183.5q0 87 -43 135.5t-113 48.5 q-66 0 -124 -64.5t-89 -157t-31 -183.5q0 -86 42.5 -134.5t112.5 -48.5z" />
<glyph unicode="&#xd4;" horiz-adv-x="590" d="M513 728h-34l-51 112l-96 -112h-38l114 144h52zM265 -12q-95 0 -152.5 64t-57.5 171q0 100 36.5 203t109.5 177.5t162 74.5q95 0 153 -64.5t58 -170.5q0 -73 -22 -152t-61 -147t-98.5 -112t-127.5 -44zM269 39q66 0 124 64t89.5 156.5t31.5 183.5q0 87 -43 135.5 t-113 48.5q-66 0 -124 -64.5t-89 -157t-31 -183.5q0 -86 42.5 -134.5t112.5 -48.5z" />
<glyph unicode="&#xd5;" horiz-adv-x="590" d="M459 726q-23 0 -36 16t-16.5 35.5t-12.5 35.5t-26 16q-40 0 -61 -97h-34q29 134 102 134q23 0 36 -16t16.5 -35.5t12.5 -35.5t25 -16q40 0 63 97h34q-29 -134 -103 -134zM265 -12q-95 0 -152.5 64t-57.5 171q0 100 36.5 203t109.5 177.5t162 74.5q95 0 153 -64.5 t58 -170.5q0 -73 -22 -152t-61 -147t-98.5 -112t-127.5 -44zM269 39q66 0 124 64t89.5 156.5t31.5 183.5q0 87 -43 135.5t-113 48.5q-66 0 -124 -64.5t-89 -157t-31 -183.5q0 -86 42.5 -134.5t112.5 -48.5z" />
<glyph unicode="&#xd6;" horiz-adv-x="590" d="M531 773q0 -16 -12 -28.5t-28 -12.5q-14 0 -23.5 9.5t-9.5 23.5q0 16 12 28t29 12q13 0 22.5 -9.5t9.5 -22.5zM363 773q0 -17 -12.5 -29t-28.5 -12q-14 0 -23 9.5t-9 23.5q0 16 12 28t29 12q13 0 22.5 -9.5t9.5 -22.5zM265 -12q-95 0 -152.5 64t-57.5 171q0 100 36.5 203 t109.5 177.5t162 74.5q95 0 153 -64.5t58 -170.5q0 -73 -22 -152t-61 -147t-98.5 -112t-127.5 -44zM269 39q66 0 124 64t89.5 156.5t31.5 183.5q0 87 -43 135.5t-113 48.5q-66 0 -124 -64.5t-89 -157t-31 -183.5q0 -86 42.5 -134.5t112.5 -48.5z" />
<glyph unicode="&#xd7;" horiz-adv-x="436" d="M335 176l-101 129l-161 -132l-25 32l162 132l-101 129l32 26l100 -129l161 132l25 -32l-161 -132l101 -129z" />
<glyph unicode="&#xd8;" horiz-adv-x="590" d="M265 -12q-87 0 -142 52l-29 -40h-47l51 70q-43 60 -43 153q0 100 36.5 203t109.5 177.5t162 74.5q85 0 141 -53l30 42h47l-52 -71q45 -61 45 -153q0 -73 -22 -152t-61 -147t-98.5 -112t-127.5 -44zM269 39q66 0 124 64t89.5 156.5t31.5 183.5q0 59 -22 103l-335 -459 q42 -48 112 -48zM114 222q0 -60 21 -102l335 459q-40 48 -112 48q-66 0 -124 -64.5t-89 -157t-31 -183.5z" />
<glyph unicode="&#xd9;" horiz-adv-x="552" d="M436 728h-39l-103 144h58zM249 -12q-85 0 -135.5 46.5t-50.5 126.5q0 29 5 49l100 457h56l-101 -458q-5 -17 -5 -42q0 -59 36 -94t97 -35q67 0 105 42t57 129l101 458h56l-101 -457q-25 -112 -76.5 -167t-143.5 -55z" />
<glyph unicode="&#xda;" horiz-adv-x="552" d="M536 872l-167 -144h-41l148 144h60zM249 -12q-85 0 -135.5 46.5t-50.5 126.5q0 29 5 49l100 457h56l-101 -458q-5 -17 -5 -42q0 -59 36 -94t97 -35q67 0 105 42t57 129l101 458h56l-101 -457q-25 -112 -76.5 -167t-143.5 -55z" />
<glyph unicode="&#xdb;" horiz-adv-x="552" d="M494 728h-34l-51 112l-96 -112h-38l114 144h52zM249 -12q-85 0 -135.5 46.5t-50.5 126.5q0 29 5 49l100 457h56l-101 -458q-5 -17 -5 -42q0 -59 36 -94t97 -35q67 0 105 42t57 129l101 458h56l-101 -457q-25 -112 -76.5 -167t-143.5 -55z" />
<glyph unicode="&#xdc;" horiz-adv-x="552" d="M512 773q0 -16 -12 -28.5t-28 -12.5q-14 0 -23.5 9.5t-9.5 23.5q0 16 12 28t29 12q14 0 23 -9.5t9 -22.5zM344 773q0 -17 -12 -29t-29 -12q-14 0 -23 9.5t-9 23.5q0 16 12 28t29 12q14 0 23 -9.5t9 -22.5zM249 -12q-85 0 -135.5 46.5t-50.5 126.5q0 29 5 49l100 457h56 l-101 -458q-5 -17 -5 -42q0 -59 36 -94t97 -35q67 0 105 42t57 129l101 458h56l-101 -457q-25 -112 -76.5 -167t-143.5 -55z" />
<glyph unicode="&#xdd;" horiz-adv-x="483" d="M507 872l-167 -144h-41l148 144h60zM216 0h-56l63 286l-122 381h60l98 -325l243 325h66l-289 -381z" />
<glyph unicode="&#xde;" horiz-adv-x="468" d="M77 0h-56l147 667h56l-27 -124h117q62 0 103.5 -44.5t41.5 -111.5q0 -41 -13 -80.5t-38.5 -74.5t-69.5 -56.5t-101 -21.5h-127zM243 204q75 0 115.5 54t40.5 126q0 47 -27.5 77.5t-70.5 30.5h-116l-63 -288h121z" />
<glyph unicode="&#xdf;" horiz-adv-x="501" d="M460 137q0 -59 -43 -104t-115 -45q-102 0 -159 77l35 33q47 -67 123 -67q47 0 77 29.5t30 71.5q0 25 -19 45.5t-47 35.5l-54 31q-28 16 -47 42t-19 60q0 44 27.5 75.5t60 46.5t60 38.5t27.5 53.5q0 33 -26.5 52.5t-64.5 19.5q-42 0 -74 -29t-44 -83l-115 -520h-51 l115 520q16 72 61.5 114.5t110.5 42.5q58 0 98.5 -30.5t40.5 -79.5q0 -35 -18 -60.5t-44 -40.5l-52 -30q-25 -14 -43 -34.5t-18 -47.5q0 -25 19.5 -45t46.5 -35t54.5 -32t47 -43.5t19.5 -61.5z" />
<glyph unicode="&#xe0;" d="M255 495q44 0 78 -23t52 -66l16 77h51l-107 -483h-51l16 69q-55 -81 -134 -81q-64 0 -102 45t-38 123q0 74 25 150t77 132.5t117 56.5zM260 450q-50 0 -90.5 -50t-60 -115t-19.5 -123q0 -62 27 -95.5t76 -33.5q36 0 71.5 27t57.5 65l52 235q-11 38 -42 64t-72 26z M340 556h-39l-103 144h58z" />
<glyph unicode="&#xe1;" d="M255 495q44 0 78 -23t52 -66l16 77h51l-107 -483h-51l16 69q-55 -81 -134 -81q-64 0 -102 45t-38 123q0 74 25 150t77 132.5t117 56.5zM260 450q-50 0 -90.5 -50t-60 -115t-19.5 -123q0 -62 27 -95.5t76 -33.5q36 0 71.5 27t57.5 65l52 235q-11 38 -42 64t-72 26z M442 700l-167 -144h-41l148 144h60z" />
<glyph unicode="&#xe2;" d="M255 495q44 0 78 -23t52 -66l16 77h51l-107 -483h-51l16 69q-55 -81 -134 -81q-64 0 -102 45t-38 123q0 74 25 150t77 132.5t117 56.5zM260 450q-50 0 -90.5 -50t-60 -115t-19.5 -123q0 -62 27 -95.5t76 -33.5q36 0 71.5 27t57.5 65l52 235q-11 38 -42 64t-72 26z M398 556h-34l-51 112l-96 -112h-38l114 144h52z" />
<glyph unicode="&#xe3;" d="M255 495q44 0 78 -23t52 -66l16 77h51l-107 -483h-51l16 69q-55 -81 -134 -81q-64 0 -102 45t-38 123q0 74 25 150t77 132.5t117 56.5zM260 450q-50 0 -90.5 -50t-60 -115t-19.5 -123q0 -62 27 -95.5t76 -33.5q36 0 71.5 27t57.5 65l52 235q-11 38 -42 64t-72 26z M344 554q-23 0 -36 16t-16.5 35.5t-12.5 35.5t-26 16q-40 0 -61 -97h-34q29 134 102 134q23 0 36 -16t16.5 -35.5t12.5 -35.5t25 -16q40 0 63 97h34q-29 -134 -103 -134z" />
<glyph unicode="&#xe4;" d="M255 495q44 0 78 -23t52 -66l16 77h51l-107 -483h-51l16 69q-55 -81 -134 -81q-64 0 -102 45t-38 123q0 74 25 150t77 132.5t117 56.5zM260 450q-50 0 -90.5 -50t-60 -115t-19.5 -123q0 -62 27 -95.5t76 -33.5q36 0 71.5 27t57.5 65l52 235q-11 38 -42 64t-72 26z M419 605q0 -16 -12 -28.5t-28 -12.5q-14 0 -23.5 9.5t-9.5 23.5q0 16 12 28t29 12q13 0 22.5 -9.5t9.5 -22.5zM251 605q0 -17 -12.5 -29t-28.5 -12q-14 0 -23 9.5t-9 23.5q0 16 12 28t29 12q13 0 22.5 -9.5t9.5 -22.5z" />
<glyph unicode="&#xe5;" d="M255 495q44 0 78 -23t52 -66l16 77h51l-107 -483h-51l16 69q-55 -81 -134 -81q-64 0 -102 45t-38 123q0 74 25 150t77 132.5t117 56.5zM260 450q-50 0 -90.5 -50t-60 -115t-19.5 -123q0 -62 27 -95.5t76 -33.5q36 0 71.5 27t57.5 65l52 235q-11 38 -42 64t-72 26z M297 550q-35 0 -57 22.5t-22 57.5q0 39 29 68t68 29q34 0 56.5 -22.5t22.5 -57.5q0 -39 -29 -68t-68 -29zM299 581q26 0 45 18.5t19 44.5q0 23 -14 37.5t-36 14.5q-26 0 -45 -19t-19 -44q0 -23 14 -37.5t36 -14.5z" />
<glyph unicode="&#xe6;" horiz-adv-x="763" d="M524 -12q-129 0 -153 128l-26 -116h-51l16 69q-55 -81 -134 -81q-64 0 -102 45t-38 123q0 74 25 150t77 132.5t117 56.5q44 0 78 -23t52 -66l16 77h51l-21 -93q67 105 151 105q69 0 107 -45.5t38 -128.5q0 -48 -13 -96h-317q-5 -28 -5 -53q0 -62 34 -101t97 -39 q61 0 114 55l23 -35q-61 -64 -136 -64zM260 450q-50 0 -90.5 -50t-60 -115t-19.5 -123q0 -62 27 -95.5t76 -33.5q36 0 72 26.5t58 65.5l51 235q-11 38 -42 64t-72 26zM672 265q6 25 6 54q0 59 -28 96t-82 37q-59 0 -105.5 -57.5t-58.5 -129.5h268z" />
<glyph unicode="&#xe7;" horiz-adv-x="400" d="M154 -189q-56 0 -90 37l23 29q27 -33 70 -33q28 0 43.5 15t15.5 38q0 14 -9 22.5t-24 8.5q-19 0 -33 -17l-24 16l38 65q-59 12 -93 59t-34 124q0 74 28 146.5t84 123t124 50.5q90 0 132 -69l-35 -32q-31 56 -96 56q-55 0 -98.5 -46.5t-64 -108.5t-20.5 -122 q0 -69 32.5 -104.5t87.5 -35.5t98 48l23 -36q-55 -57 -127 -57h-6l-27 -45q12 11 29 11q23 0 37.5 -15.5t14.5 -40.5q0 -37 -28 -62t-71 -25z" />
<glyph unicode="&#xe8;" horiz-adv-x="464" d="M216 -12q-84 0 -131.5 49.5t-47.5 136.5q0 66 26 138.5t81.5 127.5t124.5 55q74 0 116.5 -46.5t42.5 -129.5q0 -48 -13 -94h-321q-5 -28 -5 -53q0 -62 34 -101.5t97 -39.5t117 56l23 -34q-63 -65 -144 -65zM369 265h4q6 25 6 54q0 58 -29.5 95.5t-84.5 37.5 q-60 0 -106 -57.5t-58 -129.5h268zM358 556h-39l-103 144h58z" />
<glyph unicode="&#xe9;" horiz-adv-x="464" d="M216 -12q-84 0 -131.5 49.5t-47.5 136.5q0 66 26 138.5t81.5 127.5t124.5 55q74 0 116.5 -46.5t42.5 -129.5q0 -48 -13 -94h-321q-5 -28 -5 -53q0 -62 34 -101.5t97 -39.5t117 56l23 -34q-63 -65 -144 -65zM369 265h4q6 25 6 54q0 58 -29.5 95.5t-84.5 37.5 q-60 0 -106 -57.5t-58 -129.5h268zM459 700l-167 -144h-41l148 144h60z" />
<glyph unicode="&#xea;" horiz-adv-x="464" d="M216 -12q-84 0 -131.5 49.5t-47.5 136.5q0 66 26 138.5t81.5 127.5t124.5 55q74 0 116.5 -46.5t42.5 -129.5q0 -48 -13 -94h-321q-5 -28 -5 -53q0 -62 34 -101.5t97 -39.5t117 56l23 -34q-63 -65 -144 -65zM369 265h4q6 25 6 54q0 58 -29.5 95.5t-84.5 37.5 q-60 0 -106 -57.5t-58 -129.5h268zM415 556h-34l-51 112l-96 -112h-38l114 144h52z" />
<glyph unicode="&#xeb;" horiz-adv-x="464" d="M216 -12q-84 0 -131.5 49.5t-47.5 136.5q0 66 26 138.5t81.5 127.5t124.5 55q74 0 116.5 -46.5t42.5 -129.5q0 -48 -13 -94h-321q-5 -28 -5 -53q0 -62 34 -101.5t97 -39.5t117 56l23 -34q-63 -65 -144 -65zM369 265h4q6 25 6 54q0 58 -29.5 95.5t-84.5 37.5 q-60 0 -106 -57.5t-58 -129.5h268zM434 605q0 -16 -12 -28.5t-28 -12.5q-14 0 -23.5 9.5t-9.5 23.5q0 16 12 28t29 12q14 0 23 -9.5t9 -22.5zM266 605q0 -17 -12 -29t-29 -12q-14 0 -23 9.5t-9 23.5q0 16 12 28t29 12q14 0 23 -9.5t9 -22.5z" />
<glyph unicode="&#xec;" horiz-adv-x="192" d="M217 556h-39l-103 144h58zM67 0h-50l107 483h50z" />
<glyph unicode="&#xed;" horiz-adv-x="192" d="M319 700l-167 -144h-41l148 144h60zM67 0h-50l107 483h50z" />
<glyph unicode="&#xee;" horiz-adv-x="192" d="M275 556h-34l-51 112l-96 -112h-38l114 144h52zM67 0h-50l107 483h50z" />
<glyph unicode="&#xef;" horiz-adv-x="192" d="M295 605q0 -16 -12 -28.5t-28 -12.5q-14 0 -23.5 9.5t-9.5 23.5q0 16 12 28t29 12q13 0 22.5 -9.5t9.5 -22.5zM127 605q0 -17 -12.5 -29t-28.5 -12q-14 0 -23 9.5t-9 23.5q0 16 12 28t29 12q13 0 22.5 -9.5t9.5 -22.5zM67 0h-50l107 483h50z" />
<glyph unicode="&#xf0;" d="M181 523l-8 32l128 38q-20 34 -51 68l45 28q36 -46 58 -80l97 29l7 -32l-87 -26q65 -113 65 -224q0 -86 -26 -168.5t-80.5 -141t-125.5 -58.5q-78 0 -122 48.5t-44 131.5q0 117 64.5 218.5t156.5 101.5q40 0 74 -22t50 -66q-22 87 -64 164zM204 33q48 0 89 47t62 110.5 t21 121.5q0 51 -28.5 90.5t-85.5 39.5q-48 0 -88.5 -46t-61.5 -108t-21 -119q0 -66 30 -101t83 -35z" />
<glyph unicode="&#xf1;" horiz-adv-x="450" d="M327 0h-51l78 355q5 23 5 31q0 64 -74 64q-68 0 -137 -87l-80 -363h-50l107 483h50l-15 -70q69 82 145 82q49 0 78 -24.5t29 -69.5q0 -15 -5 -37zM352 554q-23 0 -36 16t-16.5 35.5t-12.5 35.5t-26 16q-40 0 -61 -97h-34q29 134 102 134q23 0 36 -16t16.5 -35.5 t12.5 -35.5t25 -16q40 0 63 97h34q-29 -134 -103 -134z" />
<glyph unicode="&#xf2;" d="M200 -12q-75 0 -119 47.5t-44 133.5q0 75 27.5 148.5t82 125.5t122.5 52q75 0 118.5 -47.5t43.5 -133.5q0 -75 -27.5 -148.5t-82 -125.5t-121.5 -52zM202 33q73 0 124.5 93.5t51.5 187.5q0 66 -29.5 101t-82.5 35q-73 0 -124.5 -93.5t-51.5 -187.5q0 -66 29.5 -101 t82.5 -35zM357 556h-39l-103 144h58z" />
<glyph unicode="&#xf3;" d="M200 -12q-75 0 -119 47.5t-44 133.5q0 75 27.5 148.5t82 125.5t122.5 52q75 0 118.5 -47.5t43.5 -133.5q0 -75 -27.5 -148.5t-82 -125.5t-121.5 -52zM202 33q73 0 124.5 93.5t51.5 187.5q0 66 -29.5 101t-82.5 35q-73 0 -124.5 -93.5t-51.5 -187.5q0 -66 29.5 -101 t82.5 -35zM458 700l-167 -144h-41l148 144h60z" />
<glyph unicode="&#xf4;" d="M200 -12q-75 0 -119 47.5t-44 133.5q0 75 27.5 148.5t82 125.5t122.5 52q75 0 118.5 -47.5t43.5 -133.5q0 -75 -27.5 -148.5t-82 -125.5t-121.5 -52zM202 33q73 0 124.5 93.5t51.5 187.5q0 66 -29.5 101t-82.5 35q-73 0 -124.5 -93.5t-51.5 -187.5q0 -66 29.5 -101 t82.5 -35zM414 556h-34l-51 112l-96 -112h-38l114 144h52z" />
<glyph unicode="&#xf5;" d="M200 -12q-75 0 -119 47.5t-44 133.5q0 75 27.5 148.5t82 125.5t122.5 52q75 0 118.5 -47.5t43.5 -133.5q0 -75 -27.5 -148.5t-82 -125.5t-121.5 -52zM202 33q73 0 124.5 93.5t51.5 187.5q0 66 -29.5 101t-82.5 35q-73 0 -124.5 -93.5t-51.5 -187.5q0 -66 29.5 -101 t82.5 -35zM361 554q-23 0 -36 16t-16.5 35.5t-12.5 35.5t-26 16q-40 0 -61 -97h-34q29 134 102 134q23 0 36 -16t16.5 -35.5t12.5 -35.5t25 -16q40 0 63 97h34q-29 -134 -103 -134z" />
<glyph unicode="&#xf6;" d="M200 -12q-75 0 -119 47.5t-44 133.5q0 75 27.5 148.5t82 125.5t122.5 52q75 0 118.5 -47.5t43.5 -133.5q0 -75 -27.5 -148.5t-82 -125.5t-121.5 -52zM202 33q73 0 124.5 93.5t51.5 187.5q0 66 -29.5 101t-82.5 35q-73 0 -124.5 -93.5t-51.5 -187.5q0 -66 29.5 -101 t82.5 -35zM434 605q0 -16 -12 -28.5t-28 -12.5q-14 0 -23.5 9.5t-9.5 23.5q0 16 12 28t29 12q14 0 23 -9.5t9 -22.5zM266 605q0 -17 -12 -29t-29 -12q-14 0 -23 9.5t-9 23.5q0 16 12 28t29 12q14 0 23 -9.5t9 -22.5z" />
<glyph unicode="&#xf7;" horiz-adv-x="443" d="M429 317h-384l9 40h385zM201 127q-15 0 -25.5 10.5t-10.5 25.5q0 17 12.5 29t30.5 12q15 0 25 -10t10 -25q0 -18 -12.5 -30t-29.5 -12zM276 465q-15 0 -25.5 10.5t-10.5 25.5q0 17 13 29.5t30 12.5q15 0 25 -10.5t10 -25.5q0 -17 -12.5 -29.5t-29.5 -12.5z" />
<glyph unicode="&#xf8;" d="M51 0h-43l53 63q-24 42 -24 106q0 75 27.5 148.5t82 125.5t122.5 52q74 0 117 -46l28 34h42l-51 -61q26 -43 26 -108q0 -75 -27.5 -148.5t-82 -125.5t-121.5 -52q-76 0 -120 47zM202 33q73 0 124.5 93.5t51.5 187.5q0 38 -10 64l-254 -303q28 -42 88 -42zM90 169 q0 -34 8 -61l254 302q-29 40 -86 40q-73 0 -124.5 -93.5t-51.5 -187.5z" />
<glyph unicode="&#xf9;" horiz-adv-x="450" d="M123 483h51l-78 -355q-5 -22 -5 -31q0 -64 75 -64q69 0 135 85l81 365h51l-107 -483h-51l15 70q-69 -82 -144 -82q-50 0 -79 24t-29 70q0 14 5 37zM348 556h-39l-103 144h58z" />
<glyph unicode="&#xfa;" horiz-adv-x="450" d="M123 483h51l-78 -355q-5 -22 -5 -31q0 -64 75 -64q69 0 135 85l81 365h51l-107 -483h-51l15 70q-69 -82 -144 -82q-50 0 -79 24t-29 70q0 14 5 37zM449 700l-167 -144h-41l148 144h60z" />
<glyph unicode="&#xfb;" horiz-adv-x="450" d="M123 483h51l-78 -355q-5 -22 -5 -31q0 -64 75 -64q69 0 135 85l81 365h51l-107 -483h-51l15 70q-69 -82 -144 -82q-50 0 -79 24t-29 70q0 14 5 37zM404 556h-34l-51 112l-96 -112h-38l114 144h52z" />
<glyph unicode="&#xfc;" horiz-adv-x="450" d="M123 483h51l-78 -355q-5 -22 -5 -31q0 -64 75 -64q69 0 135 85l81 365h51l-107 -483h-51l15 70q-69 -82 -144 -82q-50 0 -79 24t-29 70q0 14 5 37zM427 605q0 -16 -12 -28.5t-28 -12.5q-14 0 -23.5 9.5t-9.5 23.5q0 16 12 28t29 12q13 0 22.5 -9.5t9.5 -22.5zM259 605 q0 -17 -12.5 -29t-28.5 -12q-14 0 -23 9.5t-9 23.5q0 16 12 28t29 12q13 0 22.5 -9.5t9.5 -22.5z" />
<glyph unicode="&#xfd;" horiz-adv-x="392" d="M-55 -186l19 45q10 -7 35 -7q18 0 32 11t31 41l50 87l-49 492h54l36 -421l225 421h57l-327 -593q-48 -86 -114 -86q-29 0 -49 10zM419 700l-167 -144h-41l148 144h60z" />
<glyph unicode="&#xfe;" horiz-adv-x="468" d="M214 -12q-44 0 -78 23t-52 66l-58 -261h-50l188 851h50l-55 -253q53 81 133 81q64 0 102.5 -44.5t38.5 -123.5q0 -73 -25 -149.5t-77 -133t-117 -56.5zM209 33q50 0 90.5 50t60 115t19.5 123q0 62 -27.5 95.5t-75.5 33.5q-37 0 -72 -26.5t-58 -65.5l-52 -235 q11 -38 42.5 -64t72.5 -26z" />
<glyph unicode="&#xff;" horiz-adv-x="392" d="M-55 -186l19 45q10 -7 35 -7q18 0 32 11t31 41l50 87l-49 492h54l36 -421l225 421h57l-327 -593q-48 -86 -114 -86q-29 0 -49 10zM395 605q0 -16 -12 -28.5t-28 -12.5q-14 0 -23.5 9.5t-9.5 23.5q0 16 12 28t29 12q13 0 22.5 -9.5t9.5 -22.5zM227 605q0 -17 -12.5 -29 t-28.5 -12q-14 0 -23 9.5t-9 23.5q0 16 12 28t29 12q13 0 22.5 -9.5t9.5 -22.5z" />
<glyph unicode="&#x152;" horiz-adv-x="847" d="M739 0h-326l20 93q-70 -105 -186 -105q-88 0 -140 65t-52 170q0 72 23 151t62.5 147t100 112t128.5 44q133 0 166 -128l25 118h326l-10 -50h-271l-55 -250h264l-12 -50h-263l-59 -267h270zM454 183l61 277q-7 81 -46 123.5t-104 42.5q-70 0 -129.5 -66.5t-90.5 -159 t-31 -178.5q0 -83 39.5 -133t109.5 -50q55 0 106 38.5t85 105.5z" />
<glyph unicode="&#x153;" horiz-adv-x="783" d="M735 225h-317q-5 -20 -5 -53q0 -64 33.5 -102.5t95.5 -38.5t115 56l24 -34q-63 -65 -142 -65q-72 0 -114.5 40t-48.5 95q-32 -60 -73.5 -97.5t-104.5 -37.5q-75 0 -118 47t-43 134q0 77 27.5 151t81.5 124.5t121 50.5q65 0 103 -40t43 -93q67 133 179 133q72 0 114 -46.5 t42 -129.5q0 -51 -13 -94zM425 265h268q7 23 7 54q0 61 -29.5 97t-83.5 36q-62 0 -106.5 -59t-55.5 -128zM374 314q0 68 -30.5 102t-79.5 34q-72 0 -123 -92.5t-51 -188.5q0 -64 28.5 -100t81.5 -36q49 0 90.5 47t62.5 111t21 123z" />
<glyph unicode="&#x178;" horiz-adv-x="483" d="M482 773q0 -16 -12 -28.5t-28 -12.5q-14 0 -23.5 9.5t-9.5 23.5q0 16 12 28t29 12q14 0 23 -9.5t9 -22.5zM314 773q0 -17 -12 -29t-29 -12q-14 0 -23 9.5t-9 23.5q0 16 12 28t29 12q14 0 23 -9.5t9 -22.5zM216 0h-56l63 286l-122 381h60l98 -325l243 325h66l-289 -381z " />
<glyph unicode="&#x2c6;" horiz-adv-x="219" d="M288 556h-34l-51 112l-96 -112h-38l114 144h52z" />
<glyph unicode="&#x2dc;" horiz-adv-x="261" d="M256 554q-23 0 -36 16t-16.5 35.5t-12.5 35.5t-26 16q-40 0 -61 -97h-34q29 134 102 134q23 0 36 -16t16.5 -35.5t12.5 -35.5t25 -16q40 0 63 97h34q-29 -134 -103 -134z" />
<glyph unicode="&#x2000;" horiz-adv-x="436" />
<glyph unicode="&#x2001;" horiz-adv-x="872" />
<glyph unicode="&#x2002;" horiz-adv-x="436" />
<glyph unicode="&#x2003;" horiz-adv-x="872" />
<glyph unicode="&#x2004;" horiz-adv-x="290" />
<glyph unicode="&#x2005;" horiz-adv-x="218" />
<glyph unicode="&#x2006;" horiz-adv-x="145" />
<glyph unicode="&#x2007;" horiz-adv-x="145" />
<glyph unicode="&#x2008;" horiz-adv-x="109" />
<glyph unicode="&#x2009;" horiz-adv-x="174" />
<glyph unicode="&#x200a;" horiz-adv-x="48" />
<glyph unicode="&#x2010;" horiz-adv-x="266" d="M231 219h-207l10 46h206z" />
<glyph unicode="&#x2011;" horiz-adv-x="266" d="M231 219h-207l10 46h206z" />
<glyph unicode="&#x2013;" horiz-adv-x="527" d="M491 219h-467l10 46h466z" />
<glyph unicode="&#x2014;" horiz-adv-x="737" d="M701 219h-677l10 46h676z" />
<glyph unicode="&#x2018;" horiz-adv-x="218" d="M123 532q0 41 30 82.5t71 62.5l24 -26q-28 -14 -49.5 -37.5t-28.5 -46.5h7q14 0 24 -10t10 -25q0 -19 -14 -33t-33 -14q-18 0 -29.5 12.5t-11.5 34.5z" />
<glyph unicode="&#x2019;" horiz-adv-x="218" d="M241 630q0 -41 -30.5 -82.5t-71.5 -62.5l-24 26q28 14 49.5 37t28.5 47q-1 -1 -7 -1q-14 0 -24 10.5t-10 25.5q0 19 14 33t33 14q18 0 30 -12.5t12 -34.5z" />
<glyph unicode="&#x201a;" horiz-adv-x="218" d="M107 29q0 -41 -30 -82.5t-71 -62.5l-24 26q28 14 49.5 37.5t28.5 46.5h-7q-14 0 -24 10.5t-10 25.5q0 19 14 32.5t32 13.5q19 0 30.5 -12t11.5 -35z" />
<glyph unicode="&#x201c;" horiz-adv-x="359" d="M267 532q0 41 30 82.5t71 62.5l24 -26q-28 -14 -49.5 -37.5t-28.5 -46.5h7q14 0 24 -10t10 -25q0 -19 -14 -33t-32 -14q-19 0 -30.5 12t-11.5 35zM128 532q0 41 30 82.5t71 62.5l24 -26q-28 -14 -49.5 -37.5t-27.5 -46.5h7q14 0 23.5 -10t9.5 -25q0 -19 -14 -33t-32 -14 q-19 0 -30.5 12t-11.5 35z" />
<glyph unicode="&#x201d;" horiz-adv-x="359" d="M241 630q0 -41 -30.5 -82.5t-71.5 -62.5l-24 26q28 14 49.5 37t28.5 47q-1 -1 -7 -1q-14 0 -24 10.5t-10 25.5q0 19 14 33t33 14q18 0 30 -12.5t12 -34.5zM380 630q0 -41 -30.5 -82.5t-71.5 -62.5l-24 26q28 14 49.5 37t28.5 47q-1 -1 -7 -1q-14 0 -24 10.5t-10 25.5 q0 19 14 33t33 14q18 0 30 -12.5t12 -34.5z" />
<glyph unicode="&#x201e;" horiz-adv-x="359" d="M107 29q0 -41 -30 -82.5t-71 -62.5l-24 26q28 14 49.5 37.5t28.5 46.5h-7q-14 0 -24 10.5t-10 25.5q0 19 14 32.5t32 13.5q19 0 30.5 -12t11.5 -35zM246 29q0 -41 -30 -82.5t-71 -62.5l-24 26q28 14 49.5 37.5t28.5 46.5h-7q-14 0 -24 10.5t-10 25.5q0 19 14 32.5 t32 13.5q19 0 30.5 -12t11.5 -35z" />
<glyph unicode="&#x2022;" horiz-adv-x="358" d="M282 252q0 -45 -34.5 -78t-79.5 -33q-40 0 -66 26t-26 66q0 45 34.5 78t79.5 33q40 0 66 -26t26 -66z" />
<glyph unicode="&#x2026;" horiz-adv-x="655" d="M58 -10q-16 0 -27.5 11.5t-11.5 28.5q0 19 13.5 32.5t33.5 13.5q17 0 28.5 -11.5t11.5 -27.5q0 -19 -14 -33t-34 -14zM277 -10q-17 0 -28.5 11.5t-11.5 28.5q0 19 14 32.5t33 13.5q17 0 28.5 -11t11.5 -28q0 -19 -14 -33t-33 -14zM495 -10q-17 0 -28.5 12t-11.5 28 q0 19 14 32.5t34 13.5q17 0 28 -11t11 -28q0 -19 -14 -33t-33 -14z" />
<glyph unicode="&#x202f;" horiz-adv-x="174" />
<glyph unicode="&#x2039;" horiz-adv-x="236" d="M162 63h-48l-85 180l165 177h54l-168 -181z" />
<glyph unicode="&#x203a;" horiz-adv-x="236" d="M75 420h48l85 -180l-165 -177h-54l169 182z" />
<glyph unicode="&#x205f;" horiz-adv-x="218" />
<glyph unicode="&#x20ac;" horiz-adv-x="538" d="M282 -12q-95 0 -152.5 62t-57.5 173v19h-47l9 41h41q6 51 21 102h-39l9 41h43q41 110 112.5 181t158.5 71q70 0 118.5 -37.5t71.5 -103.5l-53 -17q-38 107 -141 107q-62 0 -116 -56.5t-88 -144.5h231l-10 -41h-236q-17 -57 -22 -102h236l-10 -41h-230v-20q0 -87 41 -135 t114 -48q75 0 144 81l42 -28q-83 -104 -190 -104z" />
<glyph unicode="&#x2122;" horiz-adv-x="414" d="M424 447h-28l40 182l-105 -182h-8l-25 182l-40 -182h-28l48 220h43l20 -158l88 158h43zM237 641h-52l-43 -194h-28l43 194h-52l5 26h132z" />
<glyph unicode="&#x2153;" horiz-adv-x="679" d="M589 667l-496 -667h-41l496 667h41zM613 119q0 -47 -35 -86.5t-94 -39.5q-94 0 -126 72l33 23q27 -58 92 -58q40 0 63 29.5t23 67.5q0 28 -21.5 44.5t-54.5 16.5q-22 0 -28 -1l9 37q10 -1 43 -1q38 0 63 23t25 62q0 27 -21 44t-53 17q-48 0 -92 -46l-22 27q49 56 117 56 q51 0 83 -24t32 -69q0 -42 -27 -73.5t-71 -37.5q27 -6 44.5 -28.5t17.5 -54.5zM155 267h-44l74 338l-74 -64l-22 29l115 97h39z" />
<glyph unicode="&#x2154;" horiz-adv-x="756" d="M666 667l-496 -667h-41l496 667h41zM690 119q0 -47 -35 -86.5t-94 -39.5q-94 0 -126 72l33 23q27 -58 92 -58q40 0 63 29.5t23 67.5q0 28 -21.5 44.5t-54.5 16.5q-22 0 -28 -1l9 37q10 -1 43 -1q38 0 63 23t25 62q0 27 -21 44t-53 17q-48 0 -92 -46l-22 27q49 56 117 56 q51 0 83 -24t32 -69q0 -42 -27 -73.5t-71 -37.5q27 -6 44.5 -28.5t17.5 -54.5zM285 267h-238l8 36q155 129 189 163q62 62 62 109q0 30 -20.5 45.5t-50.5 15.5q-55 0 -94 -48l-24 28q49 57 119 57q47 0 81 -24.5t34 -71.5q0 -23 -11 -47t-25 -43t-46 -49.5t-55 -49.5 l-71 -60l-29 -24h179z" />
<glyph unicode="&#x215b;" horiz-adv-x="679" d="M589 667l-496 -667h-41l496 667h41zM612 110q0 -50 -37 -83.5t-92 -33.5q-54 0 -88.5 25t-34.5 70q0 46 33 79t81 42q-62 29 -62 83q0 52 37 83t86 31q47 0 81.5 -23t34.5 -68q0 -41 -27.5 -72t-77.5 -41q27 -12 46.5 -36.5t19.5 -55.5zM607 310q0 30 -20 45t-52 15 q-34 0 -57.5 -23.5t-23.5 -56.5q0 -27 21 -45t40 -24q37 7 64.5 29.5t27.5 59.5zM568 112q0 28 -18 48.5t-43 28.5q-42 -4 -72 -31.5t-30 -66.5q0 -27 22 -45t54 -18q35 0 61 24t26 60zM155 267h-44l74 338l-74 -64l-22 29l115 97h39z" />
<glyph unicode="&#x215c;" horiz-adv-x="756" d="M666 667l-496 -667h-41l496 667h41zM689 110q0 -50 -37 -83.5t-92 -33.5q-54 0 -88.5 25t-34.5 70q0 46 33 79t81 42q-62 29 -62 83q0 52 37 83t86 31q47 0 81.5 -23t34.5 -68q0 -41 -27.5 -72t-77.5 -41q27 -12 46.5 -36.5t19.5 -55.5zM684 310q0 30 -20 45t-52 15 q-34 0 -57.5 -23.5t-23.5 -56.5q0 -27 21 -45t40 -24q37 7 64.5 29.5t27.5 59.5zM645 112q0 28 -18 48.5t-43 28.5q-42 -4 -72 -31.5t-30 -66.5q0 -27 22 -45t54 -18q35 0 61 24t26 60zM312 386q0 -47 -35 -86.5t-94 -39.5q-94 0 -126 72l33 23q27 -58 92 -58q40 0 63 29.5 t23 67.5q0 28 -21.5 44.5t-54.5 16.5q-22 0 -28 -1l9 37q10 -1 43 -1q38 0 63 23t25 62q0 27 -21 44t-53 17q-48 0 -92 -46l-22 27q49 56 117 56q51 0 83 -24t32 -69q0 -42 -27 -73.5t-71 -37.5q27 -6 44.5 -28.5t17.5 -54.5z" />
<glyph unicode="&#x215d;" horiz-adv-x="754" d="M664 667l-496 -667h-41l496 667h41zM688 110q0 -50 -37 -83.5t-92 -33.5q-54 0 -88.5 25t-34.5 70q0 46 33 79t81 42q-62 29 -62 83q0 52 37 83t86 31q47 0 81.5 -23t34.5 -68q0 -41 -27.5 -72t-77.5 -41q27 -12 46.5 -36.5t19.5 -55.5zM683 310q0 30 -20 45t-52 15 q-34 0 -57.5 -23.5t-23.5 -56.5q0 -27 21 -45t40 -24q37 7 64.5 29.5t27.5 59.5zM644 112q0 28 -18 48.5t-43 28.5q-42 -4 -72 -31.5t-30 -66.5q0 -27 22 -45t54 -18q35 0 61 24t26 60zM317 419q0 -64 -40 -111.5t-100 -47.5q-89 0 -120 71l34 23q24 -57 87 -57 q41 0 67.5 35.5t26.5 81.5q0 33 -19.5 51t-49.5 18q-43 0 -79 -39l-31 13l47 210h212l-8 -37h-169l-31 -145q30 32 75 32q41 0 69.5 -25.5t28.5 -72.5z" />
<glyph unicode="&#x215e;" horiz-adv-x="685" d="M595 667l-496 -667h-41l496 667h41zM619 110q0 -50 -37 -83.5t-92 -33.5q-54 0 -88.5 25t-34.5 70q0 46 33 79t81 42q-62 29 -62 83q0 52 37 83t86 31q47 0 81.5 -23t34.5 -68q0 -41 -27.5 -72t-77.5 -41q27 -12 46.5 -36.5t19.5 -55.5zM614 310q0 30 -20 45t-52 15 q-34 0 -57.5 -23.5t-23.5 -56.5q0 -27 21 -45t40 -24q37 7 64.5 29.5t27.5 59.5zM575 112q0 28 -18 48.5t-43 28.5q-42 -4 -72 -31.5t-30 -66.5q0 -27 22 -45t54 -18q35 0 61 24t26 60zM348 637l-222 -370h-47l220 363h-187l8 37h234z" />
<glyph horiz-adv-x="226" d="M115 -12q-39 0 -61 17.5t-22 51.5q0 17 4 33l128 577h50l-126 -571q-3 -14 -3 -26q0 -37 40 -37q22 0 42 18l12 -39q-27 -24 -64 -24z" />
<glyph horiz-adv-x="440" d="M321 0h-51l11 51q-51 -63 -123 -63q-56 0 -94.5 33t-38.5 95q0 81 47.5 137t117.5 56q92 0 132 -72l22 95q4 16 4 39q0 37 -27.5 58.5t-74.5 21.5q-66 0 -122 -53l-19 38q70 59 149 59q65 0 106 -29t41 -85q0 -23 -6 -48zM175 28q67 0 115 64l25 106q-13 34 -44 52.5 t-71 18.5q-54 0 -87.5 -45t-33.5 -103q0 -46 26.5 -69.5t69.5 -23.5z" />
<glyph horiz-adv-x="450" d="M132 -196q-114 0 -165 68l35 39q39 -62 130 -62q107 0 140 138l19 87q-75 -82 -145 -82q-48 0 -77.5 24t-29.5 70q0 17 5 37l80 360h50l-78 -350q-3 -18 -3 -33q0 -62 74 -62q35 0 71.5 24.5t63.5 60.5l80 360h51l-111 -496q-41 -183 -190 -183z" />
<glyph horiz-adv-x="553" d="M254 -12q-90 0 -144.5 62.5t-54.5 172.5q0 75 23 154t63 146.5t102 111t132 43.5q63 0 109 -38t67 -98l-50 -19q-17 49 -53 76.5t-82 27.5q-67 0 -126.5 -64.5t-92.5 -158t-33 -182.5q0 -86 39.5 -134.5t109.5 -48.5q79 0 134 67.5t83 174.5h-208l11 50h265 q-71 -343 -294 -343z" />
<glyph horiz-adv-x="502" d="M235 -12q-88 0 -140.5 55t-52.5 142t33.5 173t96.5 145t138 59q115 0 166 -107l-46 -21q-17 38 -49 59t-72 21q-57 0 -107.5 -54.5t-77.5 -129t-27 -141.5q0 -69 39.5 -111.5t100.5 -42.5q62 0 111 56.5t65 138.5h-165l10 45h217q-17 -119 -82 -203t-158 -84z" />
<glyph horiz-adv-x="440" d="M448 700l-167 -144h-41l148 144h60zM321 0h-51l11 51q-51 -63 -123 -63q-56 0 -94.5 33t-38.5 95q0 81 47.5 137t117.5 56q92 0 132 -72l22 95q4 16 4 39q0 37 -27.5 58.5t-74.5 21.5q-66 0 -122 -53l-19 38q70 59 149 59q65 0 106 -29t41 -85q0 -23 -6 -48zM175 28 q67 0 115 64l25 106q-13 34 -44 52.5t-71 18.5q-54 0 -87.5 -45t-33.5 -103q0 -46 26.5 -69.5t69.5 -23.5z" />
<glyph horiz-adv-x="440" d="M346 556h-39l-103 144h58zM321 0h-51l11 51q-51 -63 -123 -63q-56 0 -94.5 33t-38.5 95q0 81 47.5 137t117.5 56q92 0 132 -72l22 95q4 16 4 39q0 37 -27.5 58.5t-74.5 21.5q-66 0 -122 -53l-19 38q70 59 149 59q65 0 106 -29t41 -85q0 -23 -6 -48zM175 28q67 0 115 64 l25 106q-13 34 -44 52.5t-71 18.5q-54 0 -87.5 -45t-33.5 -103q0 -46 26.5 -69.5t69.5 -23.5z" />
<glyph horiz-adv-x="440" d="M405 556h-34l-51 112l-96 -112h-38l114 144h52zM321 0h-51l11 51q-51 -63 -123 -63q-56 0 -94.5 33t-38.5 95q0 81 47.5 137t117.5 56q92 0 132 -72l22 95q4 16 4 39q0 37 -27.5 58.5t-74.5 21.5q-66 0 -122 -53l-19 38q70 59 149 59q65 0 106 -29t41 -85q0 -23 -6 -48z M175 28q67 0 115 64l25 106q-13 34 -44 52.5t-71 18.5q-54 0 -87.5 -45t-33.5 -103q0 -46 26.5 -69.5t69.5 -23.5z" />
<glyph horiz-adv-x="440" d="M423 605q0 -16 -12 -28.5t-28 -12.5q-14 0 -23.5 9.5t-9.5 23.5q0 16 12 28t29 12q13 0 22.5 -9.5t9.5 -22.5zM255 605q0 -17 -12.5 -29t-28.5 -12q-14 0 -23 9.5t-9 23.5q0 16 12 28t29 12q13 0 22.5 -9.5t9.5 -22.5zM321 0h-51l11 51q-51 -63 -123 -63q-56 0 -94.5 33 t-38.5 95q0 81 47.5 137t117.5 56q92 0 132 -72l22 95q4 16 4 39q0 37 -27.5 58.5t-74.5 21.5q-66 0 -122 -53l-19 38q70 59 149 59q65 0 106 -29t41 -85q0 -23 -6 -48zM175 28q67 0 115 64l25 106q-13 34 -44 52.5t-71 18.5q-54 0 -87.5 -45t-33.5 -103q0 -46 26.5 -69.5 t69.5 -23.5z" />
<glyph horiz-adv-x="440" d="M351 554q-23 0 -36 16t-16.5 35.5t-12.5 35.5t-26 16q-40 0 -61 -97h-34q29 134 102 134q23 0 36 -16t16.5 -35.5t12.5 -35.5t25 -16q40 0 63 97h34q-29 -134 -103 -134zM321 0h-51l11 51q-51 -63 -123 -63q-56 0 -94.5 33t-38.5 95q0 81 47.5 137t117.5 56q92 0 132 -72 l22 95q4 16 4 39q0 37 -27.5 58.5t-74.5 21.5q-66 0 -122 -53l-19 38q70 59 149 59q65 0 106 -29t41 -85q0 -23 -6 -48zM175 28q67 0 115 64l25 106q-13 34 -44 52.5t-71 18.5q-54 0 -87.5 -45t-33.5 -103q0 -46 26.5 -69.5t69.5 -23.5z" />
<glyph horiz-adv-x="440" d="M303 557q-35 0 -57 22.5t-22 57.5q0 39 29 68t68 29q34 0 56.5 -22.5t22.5 -57.5q0 -39 -29 -68t-68 -29zM305 588q26 0 45 18.5t19 44.5q0 23 -14 37.5t-36 14.5q-26 0 -45 -19t-19 -44q0 -23 14 -37.5t36 -14.5zM321 0h-51l11 51q-51 -63 -123 -63q-56 0 -94.5 33 t-38.5 95q0 81 47.5 137t117.5 56q92 0 132 -72l22 95q4 16 4 39q0 37 -27.5 58.5t-74.5 21.5q-66 0 -122 -53l-19 38q70 59 149 59q65 0 106 -29t41 -85q0 -23 -6 -48zM175 28q67 0 115 64l25 106q-13 34 -44 52.5t-71 18.5q-54 0 -87.5 -45t-33.5 -103q0 -46 26.5 -69.5 t69.5 -23.5z" />
<glyph horiz-adv-x="450" d="M447 700l-167 -144h-41l148 144h60zM132 -196q-114 0 -165 68l35 39q39 -62 130 -62q107 0 140 138l19 87q-75 -82 -145 -82q-48 0 -77.5 24t-29.5 70q0 17 5 37l80 360h50l-78 -350q-3 -18 -3 -33q0 -62 74 -62q35 0 71.5 24.5t63.5 60.5l80 360h51l-111 -496 q-41 -183 -190 -183z" />
<glyph horiz-adv-x="450" d="M422 605q0 -16 -12 -28.5t-28 -12.5q-14 0 -23.5 9.5t-9.5 23.5q0 16 12 28t29 12q14 0 23 -9.5t9 -22.5zM254 605q0 -17 -12 -29t-29 -12q-14 0 -23 9.5t-9 23.5q0 16 12 28t29 12q14 0 23 -9.5t9 -22.5zM132 -196q-114 0 -165 68l35 39q39 -62 130 -62q107 0 140 138 l19 87q-75 -82 -145 -82q-48 0 -77.5 24t-29.5 70q0 17 5 37l80 360h50l-78 -350q-3 -18 -3 -33q0 -62 74 -62q35 0 71.5 24.5t63.5 60.5l80 360h51l-111 -496q-41 -183 -190 -183z" />
<glyph horiz-adv-x="738" d="M689 225h-318q-6 -23 -6 -53q0 -63 33.5 -102t95.5 -39q64 0 117 56l24 -34q-65 -65 -143 -65q-62 0 -102 27.5t-57 72.5q-24 -29 -42.5 -47t-54.5 -35.5t-76 -17.5q-58 0 -96.5 33.5t-38.5 95.5q0 84 48 138t117 54q43 0 79.5 -18t53.5 -51l21 92q4 17 4 38 q0 38 -27.5 59.5t-73.5 21.5q-64 0 -123 -53l-19 38q69 59 149 59q126 0 132 -105q23 47 64.5 76t94.5 29q72 0 114.5 -46t42.5 -130q0 -49 -13 -94zM379 265h268q6 20 6 52q0 60 -30.5 97.5t-83.5 37.5q-33 0 -61 -17.5t-47 -46.5t-31.5 -59.5t-20.5 -63.5zM316 122 q-4 17 -4 45q0 18 2 32q-11 34 -43.5 52t-70.5 18q-53 0 -86.5 -44t-33.5 -104q0 -45 25.5 -69t69.5 -24q76 0 141 94z" />
<glyph horiz-adv-x="502" d="M216 -12q-83 0 -125 62l-36 -50h-48l64 89q-17 48 -17 113q0 103 31.5 210t96 186t143.5 79q81 0 124 -62l37 52h48l-66 -92q18 -47 18 -111q0 -76 -19 -158t-52 -153.5t-86 -118t-113 -46.5zM220 39q60 0 110.5 76.5t75 174.5t24.5 181q0 25 -3 46l-301 -418 q27 -60 94 -60zM110 195q0 -25 3 -48l301 419q-27 60 -93 60q-46 0 -87 -45t-67 -112t-41.5 -140.5t-15.5 -133.5z" />
<glyph horiz-adv-x="465" d="M83 0h-51l97 438h-64l10 45h64l15 68q27 126 127 126q35 0 60 -16l-22 -41q-15 12 -37 12q-59 0 -78 -81l-14 -68h83l-10 -45h-83zM354 -12q-38 0 -60.5 17.5t-22.5 51.5q0 17 4 33l128 577h50l-126 -571q-3 -14 -3 -26q0 -37 40 -37q22 0 42 18l12 -39q-27 -24 -64 -24z " />
<glyph horiz-adv-x="704" d="M83 0h-51l97 438h-64l10 45h64l15 69q27 125 127 125q50 0 80 -33l-30 -37q-19 25 -49 25q-61 0 -78 -81l-14 -68h83l-10 -45h-83zM322 0h-51l97 438h-64l10 45h64l15 68q27 126 127 126q35 0 60 -16l-22 -41q-15 12 -37 12q-59 0 -78 -81l-14 -68h83l-10 -45h-83z M592 -12q-38 0 -60.5 17.5t-22.5 51.5q0 17 4 33l128 577h50l-126 -571q-3 -14 -3 -26q0 -37 40 -37q22 0 42 18l12 -39q-27 -24 -64 -24z" />
</font>
</defs>
</svg>
